<svg width="49" height="42" viewBox="0 0 49 42" fill="none" xmlns="http://www.w3.org/2000/svg">
<path d="M24.4671 2.13898e-06C26.981 4.30373 29.495 8.55917 31.9158 12.8629C27.9501 19.8737 23.9843 26.9362 19.8737 33.8987C18.277 36.5575 16.7769 39.268 15.1837 41.9268C10.1075 41.9751 5.0279 41.9751 -3.66536e-06 41.9268C0.144833 41.5889 0.28967 41.2509 0.482786 40.913C8.50744 27.2742 16.5355 13.6871 24.4671 2.13898e-06ZM24.4671 26.1155C29.5433 26.1155 34.6229 26.0672 39.6991 26.1637C42.7441 31.4365 45.8409 36.6575 48.8376 41.9786C43.7614 42.0268 38.6818 41.9785 33.6056 41.9785C30.6089 36.6575 27.4638 31.433 24.4671 26.1155Z" fill="#AE285D"/>
</svg>
