<svg width="39" height="42" viewBox="0 0 39 42" fill="none" xmlns="http://www.w3.org/2000/svg">
<path fill-rule="evenodd" clip-rule="evenodd" d="M10.9769 9.1071C20.5884 -0.405223 32.2176 -2.86912 36.8993 3.6358C41.5335 10.1407 37.4429 23.2497 27.8333 32.762C18.2237 42.3201 6.59073 44.7859 1.90895 38.281C-2.72135 31.7246 1.36735 18.6671 10.9769 9.1071Z" fill="#EF7D00"/>
<path fill-rule="evenodd" clip-rule="evenodd" d="M17.339 4.02864C16.3035 4.81816 15.2184 5.70493 14.1848 6.73855C5.75566 15.0685 2.25815 26.4497 6.39643 32.1689C10.6835 37.8843 21.033 35.8171 29.6089 27.388C34.2411 22.9045 37.3458 17.6316 38.6273 12.801C39.0221 9.20435 38.4786 6.0482 36.9015 3.63388C33.2056 -1.44076 25.2723 -1.046 17.339 4.02864Z" fill="#AD2221"/>
<path fill-rule="evenodd" clip-rule="evenodd" d="M22.1162 37.4916C17.6327 40.8918 12.949 42.5681 8.41406 41.8263C10.3364 41.9273 11.8658 39.8067 13.1454 36.9995C14.4289 34.0913 15.1669 31.3814 15.8077 28.8679C16.6963 24.8727 16.744 22.0159 16.3016 21.3752C15.5121 20.3911 13.7862 20.6371 11.8143 21.7699C10.8303 22.3134 9.59643 21.9682 11.0763 20.1451C12.6038 18.322 18.5652 13.9377 20.7336 13.2454C23.1002 12.5551 25.812 13.4934 24.8737 16.1041C24.2368 17.9749 15.9564 39.759 22.1162 37.4916ZM28.9167 3.73311C30.0495 4.8678 29.361 7.3317 27.4387 9.254C25.5164 11.1267 23.0029 11.8171 21.9178 10.732C20.7336 9.59726 21.4258 7.13527 23.3481 5.16339C25.32 3.24109 27.8335 2.64991 28.9167 3.73311Z" fill="white"/>
</svg>
