<svg width="463" height="278" viewBox="0 0 463 278" fill="none" xmlns="http://www.w3.org/2000/svg">
<mask id="mask0_2901_10528" style="mask-type:luminance" maskUnits="userSpaceOnUse" x="31" y="8" width="399" height="212">
<path d="M429.641 8.52466H31.543V219.167H429.641V8.52466Z" fill="white"/>
</mask>
<g mask="url(#mask0_2901_10528)">
<path d="M395 219.167C393.557 311.983 319.955 387.13 229.811 387.13C138.557 387.13 64.3989 310.377 64.3989 216.184C64.3989 121.992 138.557 45.3525 229.7 45.3525C248.017 45.3525 265.668 48.4502 282.099 54.1867L289.648 29.061C270.775 22.5215 250.57 19.0796 229.589 19.0796C124.569 19.0796 38.9766 107.536 38.9766 216.184C38.9766 324.832 124.569 413.288 229.7 413.288C333.942 413.288 418.98 326.324 420.423 218.938L395 219.167Z" fill="#D5414D"/>
<path d="M363.918 116.485L384.344 100.882C361.142 67.7248 328.06 42.255 289.76 29.0612L282.211 54.1868C315.404 65.6597 343.824 87.8024 363.918 116.485Z" fill="#42C79B"/>
<path d="M282.208 54.072L289.979 29.0611C252.345 16.2115 211.159 15.5231 172.637 28.1433L180.741 53.0395C214.045 42.2549 249.57 42.9433 282.208 54.072Z" fill="#DCAF47"/>
<path d="M218.543 45.5083L215.911 19.4506C176.249 22.3472 138.076 37.8255 107.561 64.5096L124.758 84.2515C151.189 61.2979 184.152 48.0344 218.543 45.5083Z" fill="#DCAF47"/>
<path d="M384.564 101.226L364.359 117.058C383.676 145.052 395.11 179.241 395.11 216.184C395.11 217.102 395.11 218.135 395.11 219.052L420.533 218.823C420.533 217.905 420.533 216.987 420.533 216.069C420.533 173.39 407.211 133.579 384.564 101.226Z" fill="#19AC7B"/>
</g>
<path d="M5.94927 189.063C5.95704 189.063 5.9726 189.063 5.98037 189.055C5.99593 189.055 6.01926 189.047 6.04259 189.047C6.01148 189.055 5.98037 189.055 5.94927 189.063ZM6.8436 189.055C6.85915 189.055 6.88249 189.063 6.89804 189.063C6.90582 189.063 6.92137 189.063 6.92915 189.071C6.90582 189.063 6.87471 189.055 6.8436 189.055ZM6.8436 189.055C6.85915 189.055 6.88249 189.063 6.89804 189.063C6.90582 189.063 6.92137 189.063 6.92915 189.071C6.90582 189.063 6.87471 189.055 6.8436 189.055ZM5.94927 189.063C5.95704 189.063 5.9726 189.063 5.98037 189.055C5.99593 189.055 6.01926 189.047 6.04259 189.047C6.01148 189.055 5.98037 189.055 5.94927 189.063ZM5.94927 189.063C5.95704 189.063 5.9726 189.063 5.98037 189.055C5.99593 189.055 6.01926 189.047 6.04259 189.047C6.01148 189.055 5.98037 189.055 5.94927 189.063ZM6.8436 189.055C6.85915 189.055 6.88249 189.063 6.89804 189.063C6.90582 189.063 6.92137 189.063 6.92915 189.071C6.90582 189.063 6.87471 189.055 6.8436 189.055ZM6.90581 189.063C6.91359 189.063 6.92915 189.063 6.93692 189.071C6.90582 189.063 6.87471 189.063 6.8436 189.055C6.86693 189.055 6.88248 189.055 6.90581 189.063ZM5.98037 189.055C5.99593 189.055 6.01926 189.047 6.04259 189.047C6.01148 189.055 5.98037 189.055 5.94927 189.063C5.95704 189.063 5.9726 189.063 5.98037 189.055ZM18.9132 184.817C16.8213 182.725 14.0372 181.574 11.0742 181.574C8.11122 181.574 5.3349 182.725 3.23516 184.817C1.15097 186.909 0 189.693 0 192.656C0 195.619 1.15097 198.395 3.24293 200.495C5.3349 202.587 8.119 203.738 11.082 203.738C14.0449 203.738 16.829 202.587 18.921 200.495C21.013 198.403 22.1639 195.619 22.1639 192.656C22.1639 189.693 21.0052 186.909 18.9132 184.817ZM6.0737 190.937C6.0737 190.058 6.51698 189.327 7.13134 189.102C7.05358 189.086 6.98358 189.071 6.90581 189.063C6.60252 189.024 6.29145 189.024 5.98037 189.063C5.88705 189.078 5.79373 189.094 5.70041 189.117C5.51376 189.164 5.3349 189.063 5.27268 188.876C5.21824 188.705 5.3349 188.495 5.51376 188.448C5.82484 188.371 6.15146 188.34 6.47031 188.34C7.59018 188.347 8.71781 188.83 9.47217 189.669C9.60437 189.817 9.60437 190.012 9.47217 190.159C9.34774 190.292 9.10666 190.292 8.98223 190.159C8.90446 190.074 8.82669 189.996 8.74114 189.918C8.8889 190.214 8.96667 190.564 8.96667 190.945C8.96667 192.002 8.3212 192.858 7.52018 192.858C6.71917 192.85 6.0737 191.995 6.0737 190.937ZM15.2037 198.481C15.0404 198.543 14.8848 198.519 14.7371 198.465C14.4882 198.379 14.2549 198.286 14.0138 198.208C12.3263 197.641 10.4754 197.61 8.77225 198.138C8.43007 198.239 8.09567 198.387 7.74571 198.488C7.25577 198.644 6.78916 198.146 6.97581 197.672C7.62906 195.969 9.5266 195.02 11.2842 195.043C12.614 195.035 14.0216 195.556 14.9159 196.567C15.2037 196.894 15.4448 197.26 15.5925 197.672C15.6936 198.006 15.5225 198.364 15.2037 198.481ZM17.2645 188.876C17.2257 189.063 17.0157 189.156 16.8368 189.117C16.7435 189.094 16.6502 189.078 16.5568 189.063C16.2458 189.024 15.9347 189.024 15.6314 189.063C15.4914 189.086 15.3514 189.109 15.2192 189.148C15.7714 189.421 16.168 190.12 16.168 190.945C16.168 192.002 15.5225 192.858 14.7215 192.858C13.9205 192.858 13.275 192.002 13.275 190.945C13.275 190.704 13.3061 190.47 13.3761 190.253C13.2673 190.268 13.1506 190.229 13.0728 190.159C12.9329 190.027 12.9484 189.802 13.0728 189.669C13.2906 189.428 13.5317 189.226 13.7961 189.047C14.7293 188.417 15.9269 188.192 17.0235 188.456C17.2101 188.495 17.3034 188.697 17.2645 188.876ZM6.8436 189.055C6.85915 189.055 6.88249 189.063 6.89804 189.063C6.90582 189.063 6.92137 189.063 6.92915 189.071C6.90582 189.063 6.87471 189.055 6.8436 189.055ZM5.94927 189.063C5.95704 189.063 5.9726 189.063 5.98037 189.055C5.99593 189.055 6.01926 189.047 6.04259 189.047C6.01148 189.055 5.98037 189.055 5.94927 189.063ZM5.94927 189.063C5.95704 189.063 5.9726 189.063 5.98037 189.055C5.99593 189.055 6.01926 189.047 6.04259 189.047C6.01148 189.055 5.98037 189.055 5.94927 189.063ZM6.8436 189.055C6.85915 189.055 6.88249 189.063 6.89804 189.063C6.90582 189.063 6.92137 189.063 6.92915 189.071C6.90582 189.063 6.87471 189.055 6.8436 189.055ZM6.8436 189.055C6.85915 189.055 6.88249 189.063 6.89804 189.063C6.90582 189.063 6.92137 189.063 6.92915 189.071C6.90582 189.063 6.87471 189.055 6.8436 189.055ZM5.94927 189.063C5.95704 189.063 5.9726 189.063 5.98037 189.055C5.99593 189.055 6.01926 189.047 6.04259 189.047C6.01148 189.055 5.98037 189.055 5.94927 189.063Z" fill="#D5414D"/>
<path d="M1.66089 211.761C1.70181 211.127 1.94391 210.632 2.38718 210.278C2.83728 209.923 3.41013 209.746 4.10574 209.746C4.58312 209.746 4.99571 209.831 5.34351 210.002C5.69132 210.172 5.95387 210.404 6.13118 210.697C6.3085 210.99 6.39715 211.321 6.39715 211.689C6.39715 212.112 6.28463 212.474 6.05958 212.774C5.83453 213.074 5.56515 213.275 5.25145 213.377V213.418C5.65381 213.541 5.96751 213.766 6.19256 214.093C6.41761 214.414 6.53014 214.827 6.53014 215.331C6.53014 215.734 6.43807 216.092 6.25394 216.405C6.06981 216.719 5.79702 216.968 5.43558 217.152C5.07414 217.329 4.64109 217.418 4.13643 217.418C3.39991 217.418 2.79295 217.23 2.31558 216.855C1.84502 216.474 1.59269 215.928 1.55859 215.219H2.68384C2.71112 215.58 2.85092 215.877 3.10325 216.109C3.35558 216.334 3.69656 216.446 4.1262 216.446C4.5422 216.446 4.86273 216.334 5.08777 216.109C5.31282 215.877 5.42535 215.58 5.42535 215.219C5.42535 214.741 5.27191 214.404 4.96502 214.206C4.66495 214.001 4.20122 213.899 3.57381 213.899H3.30784V212.938H3.58404C4.13643 212.931 4.55584 212.839 4.84227 212.661C5.13551 212.484 5.28214 212.204 5.28214 211.822C5.28214 211.495 5.17643 211.236 4.96502 211.045C4.75361 210.847 4.45354 210.748 4.06482 210.748C3.68292 210.748 3.38627 210.847 3.17486 211.045C2.96345 211.236 2.83728 211.475 2.79636 211.761H1.66089Z" fill="#2C2929"/>
<path d="M7.75512 213.551C7.75512 212.371 7.95289 211.451 8.34843 210.789C8.75079 210.121 9.43958 209.787 10.4148 209.787C11.39 209.787 12.0754 210.121 12.4709 210.789C12.8733 211.451 13.0745 212.371 13.0745 213.551C13.0745 214.745 12.8733 215.679 12.4709 216.354C12.0754 217.022 11.39 217.357 10.4148 217.357C9.43958 217.357 8.75079 217.022 8.34843 216.354C7.95289 215.679 7.75512 214.745 7.75512 213.551ZM11.9288 213.551C11.9288 212.999 11.8913 212.532 11.8162 212.15C11.748 211.768 11.6048 211.458 11.3866 211.219C11.1684 210.973 10.8444 210.851 10.4148 210.851C9.98515 210.851 9.66122 210.973 9.44299 211.219C9.22476 211.458 9.07814 211.768 9.00312 212.15C8.93492 212.532 8.90082 212.999 8.90082 213.551C8.90082 214.124 8.93492 214.605 9.00312 214.994C9.07132 215.382 9.21453 215.696 9.43276 215.935C9.65781 216.173 9.98515 216.293 10.4148 216.293C10.8444 216.293 11.1684 216.173 11.3866 215.935C11.6116 215.696 11.7583 215.382 11.8265 214.994C11.8947 214.605 11.9288 214.124 11.9288 213.551Z" fill="#2C2929"/>
<path d="M14.3084 213.551C14.3084 212.371 14.5062 211.451 14.9017 210.789C15.3041 210.121 15.9929 209.787 16.9681 209.787C17.9433 209.787 18.6287 210.121 19.0242 210.789C19.4266 211.451 19.6277 212.371 19.6277 213.551C19.6277 214.745 19.4266 215.679 19.0242 216.354C18.6287 217.022 17.9433 217.357 16.9681 217.357C15.9929 217.357 15.3041 217.022 14.9017 216.354C14.5062 215.679 14.3084 214.745 14.3084 213.551ZM18.482 213.551C18.482 212.999 18.4445 212.532 18.3695 212.15C18.3013 211.768 18.1581 211.458 17.9399 211.219C17.7216 210.973 17.3977 210.851 16.9681 210.851C16.5384 210.851 16.2145 210.973 15.9963 211.219C15.778 211.458 15.6314 211.768 15.5564 212.15C15.4882 212.532 15.4541 212.999 15.4541 213.551C15.4541 214.124 15.4882 214.605 15.5564 214.994C15.6246 215.382 15.7678 215.696 15.986 215.935C16.2111 216.173 16.5384 216.293 16.9681 216.293C17.3977 216.293 17.7216 216.173 17.9399 215.935C18.1649 215.696 18.3115 215.382 18.3797 214.994C18.4479 214.605 18.482 214.124 18.482 213.551Z" fill="#2C2929"/>
<path d="M117.505 29.3485H114.078V31.3842C114.222 31.1932 114.433 31.0329 114.713 30.9034C114.999 30.7738 115.303 30.709 115.623 30.709C116.196 30.709 116.66 30.8318 117.014 31.0773C117.376 31.3228 117.632 31.6331 117.782 32.0082C117.938 32.3832 118.017 32.7788 118.017 33.1948C118.017 33.6994 117.918 34.1495 117.72 34.5451C117.529 34.9338 117.239 35.2407 116.851 35.4657C116.469 35.6908 115.998 35.8033 115.439 35.8033C114.696 35.8033 114.099 35.6192 113.649 35.2509C113.199 34.8827 112.929 34.395 112.841 33.7881H113.976C114.051 34.1086 114.218 34.3644 114.477 34.5553C114.737 34.7394 115.061 34.8315 115.449 34.8315C115.933 34.8315 116.295 34.6849 116.534 34.3916C116.779 34.0984 116.902 33.7097 116.902 33.2255C116.902 32.7345 116.779 32.3594 116.534 32.1002C116.288 31.8343 115.927 31.7013 115.449 31.7013C115.115 31.7013 114.832 31.7865 114.6 31.957C114.375 32.1207 114.211 32.3457 114.109 32.6322H113.004V28.3255H117.505V29.3485Z" fill="#2C2929"/>
<path d="M119.231 31.9775C119.231 30.7977 119.429 29.877 119.824 29.2155C120.226 28.5472 120.915 28.213 121.89 28.213C122.866 28.213 123.551 28.5472 123.947 29.2155C124.349 29.877 124.55 30.7977 124.55 31.9775C124.55 33.1709 124.349 34.1052 123.947 34.7804C123.551 35.4487 122.866 35.7828 121.89 35.7828C120.915 35.7828 120.226 35.4487 119.824 34.7804C119.429 34.1052 119.231 33.1709 119.231 31.9775ZM123.404 31.9775C123.404 31.4251 123.367 30.9579 123.292 30.576C123.224 30.1941 123.081 29.8838 122.862 29.6451C122.644 29.3996 122.32 29.2769 121.89 29.2769C121.461 29.2769 121.137 29.3996 120.919 29.6451C120.7 29.8838 120.554 30.1941 120.479 30.576C120.411 30.9579 120.377 31.4251 120.377 31.9775C120.377 32.5503 120.411 33.0311 120.479 33.4198C120.547 33.8086 120.69 34.1223 120.908 34.3609C121.133 34.5996 121.461 34.719 121.89 34.719C122.32 34.719 122.644 34.5996 122.862 34.3609C123.087 34.1223 123.234 33.8086 123.302 33.4198C123.37 33.0311 123.404 32.5503 123.404 31.9775Z" fill="#2C2929"/>
<path d="M125.784 31.9775C125.784 30.7977 125.982 29.877 126.377 29.2155C126.78 28.5472 127.469 28.213 128.444 28.213C129.419 28.213 130.104 28.5472 130.5 29.2155C130.902 29.877 131.103 30.7977 131.103 31.9775C131.103 33.1709 130.902 34.1052 130.5 34.7804C130.104 35.4487 129.419 35.7828 128.444 35.7828C127.469 35.7828 126.78 35.4487 126.377 34.7804C125.982 34.1052 125.784 33.1709 125.784 31.9775ZM129.958 31.9775C129.958 31.4251 129.92 30.9579 129.845 30.576C129.777 30.1941 129.634 29.8838 129.416 29.6451C129.197 29.3996 128.873 29.2769 128.444 29.2769C128.014 29.2769 127.69 29.3996 127.472 29.6451C127.254 29.8838 127.107 30.1941 127.032 30.576C126.964 30.9579 126.93 31.4251 126.93 31.9775C126.93 32.5503 126.964 33.0311 127.032 33.4198C127.1 33.8086 127.243 34.1223 127.462 34.3609C127.687 34.5996 128.014 34.719 128.444 34.719C128.873 34.719 129.197 34.5996 129.416 34.3609C129.641 34.1223 129.787 33.8086 129.855 33.4198C129.924 33.0311 129.958 32.5503 129.958 31.9775Z" fill="#2C2929"/>
<path d="M367.172 47.1478L364.329 53.705H363.152L366.027 47.2706H362.242V46.2783H367.172V47.1478Z" fill="#2C2929"/>
<path d="M368.171 49.8791C368.171 48.6993 368.368 47.7787 368.764 47.1171C369.166 46.4488 369.855 46.1147 370.83 46.1147C371.805 46.1147 372.491 46.4488 372.886 47.1171C373.289 47.7787 373.49 48.6993 373.49 49.8791C373.49 51.0726 373.289 52.0069 372.886 52.682C372.491 53.3503 371.805 53.6845 370.83 53.6845C369.855 53.6845 369.166 53.3503 368.764 52.682C368.368 52.0069 368.171 51.0726 368.171 49.8791ZM372.344 49.8791C372.344 49.3267 372.307 48.8596 372.232 48.4777C372.163 48.0958 372.02 47.7855 371.802 47.5468C371.584 47.3013 371.26 47.1785 370.83 47.1785C370.401 47.1785 370.077 47.3013 369.858 47.5468C369.64 47.7855 369.493 48.0958 369.418 48.4777C369.35 48.8596 369.316 49.3267 369.316 49.8791C369.316 50.452 369.35 50.9328 369.418 51.3215C369.487 51.7102 369.63 52.0239 369.848 52.2626C370.073 52.5013 370.401 52.6206 370.83 52.6206C371.26 52.6206 371.584 52.5013 371.802 52.2626C372.027 52.0239 372.174 51.7102 372.242 51.3215C372.31 50.9328 372.344 50.452 372.344 49.8791Z" fill="#2C2929"/>
<path d="M374.724 49.8791C374.724 48.6993 374.922 47.7787 375.317 47.1171C375.719 46.4488 376.408 46.1147 377.383 46.1147C378.359 46.1147 379.044 46.4488 379.44 47.1171C379.842 47.7787 380.043 48.6993 380.043 49.8791C380.043 51.0726 379.842 52.0069 379.44 52.682C379.044 53.3503 378.359 53.6845 377.383 53.6845C376.408 53.6845 375.719 53.3503 375.317 52.682C374.922 52.0069 374.724 51.0726 374.724 49.8791ZM378.897 49.8791C378.897 49.3267 378.86 48.8596 378.785 48.4777C378.717 48.0958 378.573 47.7855 378.355 47.5468C378.137 47.3013 377.813 47.1785 377.383 47.1785C376.954 47.1785 376.63 47.3013 376.412 47.5468C376.193 47.7855 376.047 48.0958 375.972 48.4777C375.904 48.8596 375.869 49.3267 375.869 49.8791C375.869 50.452 375.904 50.9328 375.972 51.3215C376.04 51.7102 376.183 52.0239 376.401 52.2626C376.626 52.5013 376.954 52.6206 377.383 52.6206C377.813 52.6206 378.137 52.5013 378.355 52.2626C378.58 52.0239 378.727 51.7102 378.795 51.3215C378.863 50.9328 378.897 50.452 378.897 49.8791Z" fill="#2C2929"/>
<path d="M443.01 213.48C442.301 213.125 441.946 212.566 441.946 211.802C441.946 211.434 442.038 211.096 442.222 210.789C442.406 210.482 442.683 210.24 443.051 210.063C443.419 209.879 443.869 209.787 444.401 209.787C444.926 209.787 445.373 209.879 445.741 210.063C446.116 210.24 446.396 210.482 446.58 210.789C446.764 211.096 446.856 211.434 446.856 211.802C446.856 212.184 446.757 212.521 446.56 212.815C446.369 213.101 446.113 213.323 445.792 213.48C446.181 213.623 446.488 213.858 446.713 214.186C446.938 214.506 447.051 214.885 447.051 215.321C447.051 215.764 446.938 216.156 446.713 216.497C446.488 216.838 446.174 217.101 445.772 217.285C445.37 217.469 444.913 217.561 444.401 217.561C443.89 217.561 443.433 217.469 443.03 217.285C442.635 217.101 442.325 216.838 442.099 216.497C441.874 216.156 441.762 215.764 441.762 215.321C441.762 214.878 441.874 214.496 442.099 214.175C442.325 213.855 442.628 213.623 443.01 213.48ZM445.741 211.945C445.741 211.563 445.622 211.27 445.383 211.065C445.144 210.861 444.817 210.759 444.401 210.759C443.992 210.759 443.668 210.861 443.429 211.065C443.191 211.27 443.071 211.567 443.071 211.955C443.071 212.296 443.194 212.576 443.44 212.794C443.692 213.006 444.012 213.111 444.401 213.111C444.79 213.111 445.11 213.002 445.363 212.784C445.615 212.566 445.741 212.286 445.741 211.945ZM444.401 213.991C443.951 213.991 443.583 214.104 443.296 214.329C443.017 214.547 442.877 214.864 442.877 215.28C442.877 215.669 443.013 215.986 443.286 216.231C443.559 216.47 443.931 216.589 444.401 216.589C444.865 216.589 445.23 216.467 445.496 216.221C445.768 215.976 445.905 215.662 445.905 215.28C445.905 214.871 445.765 214.554 445.485 214.329C445.213 214.104 444.851 213.991 444.401 213.991Z" fill="#2C2929"/>
<path d="M448.275 213.551C448.275 212.371 448.473 211.451 448.868 210.789C449.271 210.121 449.959 209.787 450.935 209.787C451.91 209.787 452.595 210.121 452.991 210.789C453.393 211.451 453.594 212.371 453.594 213.551C453.594 214.745 453.393 215.679 452.991 216.354C452.595 217.022 451.91 217.357 450.935 217.357C449.959 217.357 449.271 217.022 448.868 216.354C448.473 215.679 448.275 214.745 448.275 213.551ZM452.449 213.551C452.449 212.999 452.411 212.532 452.336 212.15C452.268 211.768 452.125 211.458 451.906 211.219C451.688 210.973 451.364 210.851 450.935 210.851C450.505 210.851 450.181 210.973 449.963 211.219C449.745 211.458 449.598 211.768 449.523 212.15C449.455 212.532 449.421 212.999 449.421 213.551C449.421 214.124 449.455 214.605 449.523 214.994C449.591 215.382 449.734 215.696 449.953 215.935C450.178 216.173 450.505 216.293 450.935 216.293C451.364 216.293 451.688 216.173 451.906 215.935C452.132 215.696 452.278 215.382 452.346 214.994C452.415 214.605 452.449 214.124 452.449 213.551Z" fill="#2C2929"/>
<path d="M454.828 213.551C454.828 212.371 455.026 211.451 455.422 210.789C455.824 210.121 456.513 209.787 457.488 209.787C458.463 209.787 459.149 210.121 459.544 210.789C459.946 211.451 460.148 212.371 460.148 213.551C460.148 214.745 459.946 215.679 459.544 216.354C459.149 217.022 458.463 217.357 457.488 217.357C456.513 217.357 455.824 217.022 455.422 216.354C455.026 215.679 454.828 214.745 454.828 213.551ZM459.002 213.551C459.002 212.999 458.964 212.532 458.889 212.15C458.821 211.768 458.678 211.458 458.46 211.219C458.242 210.973 457.918 210.851 457.488 210.851C457.058 210.851 456.734 210.973 456.516 211.219C456.298 211.458 456.151 211.768 456.076 212.15C456.008 212.532 455.974 212.999 455.974 213.551C455.974 214.124 456.008 214.605 456.076 214.994C456.144 215.382 456.288 215.696 456.506 215.935C456.731 216.173 457.058 216.293 457.488 216.293C457.918 216.293 458.242 216.173 458.46 215.935C458.685 215.696 458.831 215.382 458.9 214.994C458.968 214.605 459.002 214.124 459.002 213.551Z" fill="#2C2929"/>
<path d="M366.881 25.9166C366.897 25.9088 366.905 25.9088 366.92 25.901C366.936 25.8933 366.951 25.8855 366.967 25.8777C366.944 25.8933 366.912 25.901 366.881 25.9166ZM368.087 25.5822C368.102 25.5822 368.126 25.5744 368.141 25.5744C368.157 25.5744 368.164 25.5666 368.18 25.5666C368.149 25.5744 368.118 25.5744 368.087 25.5822ZM369.463 25.5666C369.479 25.5666 369.487 25.5666 369.502 25.5744C369.518 25.5744 369.541 25.5822 369.557 25.5822C369.525 25.5744 369.494 25.5744 369.463 25.5666ZM369.463 25.5666C369.479 25.5666 369.487 25.5666 369.502 25.5744C369.518 25.5744 369.541 25.5822 369.557 25.5822C369.525 25.5744 369.494 25.5744 369.463 25.5666ZM368.087 25.5822C368.102 25.5822 368.126 25.5744 368.141 25.5744C368.157 25.5744 368.164 25.5666 368.18 25.5666C368.149 25.5744 368.118 25.5744 368.087 25.5822ZM366.881 25.9166C366.897 25.9088 366.905 25.9088 366.92 25.901C366.936 25.8933 366.951 25.8855 366.967 25.8777C366.944 25.8933 366.912 25.901 366.881 25.9166ZM366.881 25.9166C366.897 25.9088 366.905 25.9088 366.92 25.901C366.936 25.8933 366.951 25.8855 366.967 25.8777C366.944 25.8933 366.912 25.901 366.881 25.9166ZM368.087 25.5822C368.102 25.5822 368.126 25.5744 368.141 25.5744C368.157 25.5744 368.164 25.5666 368.18 25.5666C368.149 25.5744 368.118 25.5744 368.087 25.5822ZM369.463 25.5666C369.479 25.5666 369.487 25.5666 369.502 25.5744C369.518 25.5744 369.541 25.5822 369.557 25.5822C369.525 25.5744 369.494 25.5744 369.463 25.5666ZM369.463 25.5666C369.479 25.5666 369.487 25.5666 369.502 25.5744C369.518 25.5744 369.541 25.5822 369.557 25.5822C369.525 25.5744 369.494 25.5744 369.463 25.5666ZM368.087 25.5822C368.102 25.5822 368.126 25.5744 368.141 25.5744C368.157 25.5744 368.164 25.5666 368.18 25.5666C368.149 25.5744 368.118 25.5744 368.087 25.5822ZM366.881 25.9166C366.897 25.9088 366.905 25.9088 366.92 25.901C366.936 25.8933 366.951 25.8855 366.967 25.8777C366.944 25.8933 366.912 25.901 366.881 25.9166ZM366.881 25.9166C366.897 25.9088 366.905 25.9088 366.92 25.901C366.936 25.8933 366.951 25.8855 366.967 25.8777C366.944 25.8933 366.912 25.901 366.881 25.9166ZM368.087 25.5822C368.102 25.5822 368.126 25.5744 368.141 25.5744C368.157 25.5744 368.164 25.5666 368.18 25.5666C368.149 25.5744 368.118 25.5744 368.087 25.5822ZM369.463 25.5666C369.479 25.5666 369.487 25.5666 369.502 25.5744C369.518 25.5744 369.541 25.5822 369.557 25.5822C369.525 25.5744 369.494 25.5744 369.463 25.5666ZM373.873 25.5822C373.888 25.5822 373.912 25.5744 373.927 25.5744C373.943 25.5744 373.95 25.5666 373.966 25.5666C373.935 25.5744 373.904 25.5744 373.873 25.5822ZM375.249 25.5666C375.265 25.5666 375.28 25.5744 375.288 25.5744C375.304 25.5744 375.319 25.5744 375.335 25.5822C375.304 25.5744 375.28 25.5744 375.249 25.5666ZM376.455 25.8777C376.47 25.8855 376.486 25.8933 376.501 25.901C376.517 25.9088 376.525 25.9088 376.54 25.9166C376.509 25.901 376.486 25.8933 376.455 25.8777ZM376.455 25.8777C376.47 25.8855 376.486 25.8933 376.501 25.901C376.517 25.9088 376.525 25.9088 376.54 25.9166C376.509 25.901 376.486 25.8933 376.455 25.8777ZM375.249 25.5666C375.265 25.5666 375.28 25.5744 375.288 25.5744C375.304 25.5744 375.319 25.5744 375.335 25.5822C375.304 25.5744 375.28 25.5744 375.249 25.5666ZM373.873 25.5822C373.888 25.5822 373.912 25.5744 373.927 25.5744C373.943 25.5744 373.95 25.5666 373.966 25.5666C373.935 25.5744 373.904 25.5744 373.873 25.5822ZM369.463 25.5666C369.479 25.5666 369.487 25.5666 369.502 25.5744C369.518 25.5744 369.541 25.5822 369.557 25.5822C369.525 25.5744 369.494 25.5744 369.463 25.5666ZM368.087 25.5822C368.102 25.5822 368.126 25.5744 368.141 25.5744C368.157 25.5744 368.164 25.5666 368.18 25.5666C368.149 25.5744 368.118 25.5744 368.087 25.5822ZM366.881 25.9166C366.897 25.9088 366.905 25.9088 366.92 25.901C366.936 25.8933 366.951 25.8855 366.967 25.8777C366.944 25.8933 366.912 25.901 366.881 25.9166ZM366.881 25.9166C366.897 25.9088 366.905 25.9088 366.92 25.901C366.936 25.8933 366.951 25.8855 366.967 25.8777C366.944 25.8933 366.912 25.901 366.881 25.9166ZM368.087 25.5822C368.102 25.5822 368.126 25.5744 368.141 25.5744C368.157 25.5744 368.164 25.5666 368.18 25.5666C368.149 25.5744 368.118 25.5744 368.087 25.5822ZM369.463 25.5666C369.479 25.5666 369.487 25.5666 369.502 25.5744C369.518 25.5744 369.541 25.5822 369.557 25.5822C369.525 25.5744 369.494 25.5744 369.463 25.5666ZM373.873 25.5822C373.888 25.5822 373.912 25.5744 373.927 25.5744C373.943 25.5744 373.95 25.5666 373.966 25.5666C373.935 25.5744 373.904 25.5744 373.873 25.5822ZM375.249 25.5666C375.265 25.5666 375.28 25.5744 375.288 25.5744C375.304 25.5744 375.319 25.5744 375.335 25.5822C375.304 25.5744 375.28 25.5744 375.249 25.5666ZM376.455 25.8777C376.47 25.8855 376.486 25.8933 376.501 25.901C376.517 25.9088 376.525 25.9088 376.54 25.9166C376.509 25.901 376.486 25.8933 376.455 25.8777ZM376.455 25.8777C376.47 25.8855 376.486 25.8933 376.501 25.901C376.517 25.9088 376.525 25.9088 376.54 25.9166C376.509 25.901 376.486 25.8933 376.455 25.8777ZM375.249 25.5666C375.265 25.5666 375.28 25.5744 375.288 25.5744C375.304 25.5744 375.319 25.5744 375.335 25.5822C375.304 25.5744 375.28 25.5744 375.249 25.5666ZM373.873 25.5822C373.888 25.5822 373.912 25.5744 373.927 25.5744C373.943 25.5744 373.95 25.5666 373.966 25.5666C373.935 25.5744 373.904 25.5744 373.873 25.5822ZM369.463 25.5666C369.479 25.5666 369.487 25.5666 369.502 25.5744C369.518 25.5744 369.541 25.5822 369.557 25.5822C369.525 25.5744 369.494 25.5744 369.463 25.5666ZM368.087 25.5822C368.102 25.5822 368.126 25.5744 368.141 25.5744C368.157 25.5744 368.164 25.5666 368.18 25.5666C368.149 25.5744 368.118 25.5744 368.087 25.5822ZM366.881 25.9166C366.897 25.9088 366.905 25.9088 366.92 25.901C366.936 25.8933 366.951 25.8855 366.967 25.8777C366.944 25.8933 366.912 25.901 366.881 25.9166ZM366.881 25.9166C366.897 25.9088 366.905 25.9088 366.92 25.901C366.936 25.8933 366.951 25.8855 366.967 25.8777C366.944 25.8933 366.912 25.901 366.881 25.9166ZM368.087 25.5822C368.102 25.5822 368.126 25.5744 368.141 25.5744C368.157 25.5744 368.164 25.5666 368.18 25.5666C368.149 25.5744 368.118 25.5744 368.087 25.5822ZM369.463 25.5666C369.479 25.5666 369.487 25.5666 369.502 25.5744C369.518 25.5744 369.541 25.5822 369.557 25.5822C369.525 25.5744 369.494 25.5744 369.463 25.5666ZM373.873 25.5822C373.888 25.5822 373.912 25.5744 373.927 25.5744C373.943 25.5744 373.95 25.5666 373.966 25.5666C373.935 25.5744 373.904 25.5744 373.873 25.5822ZM375.249 25.5666C375.265 25.5666 375.28 25.5744 375.288 25.5744C375.304 25.5744 375.319 25.5744 375.335 25.5822C375.304 25.5744 375.28 25.5744 375.249 25.5666ZM376.455 25.8777C376.47 25.8855 376.486 25.8933 376.501 25.901C376.517 25.9088 376.525 25.9088 376.54 25.9166C376.509 25.901 376.486 25.8933 376.455 25.8777ZM376.455 25.8777C376.47 25.8855 376.486 25.8933 376.501 25.901C376.517 25.9088 376.525 25.9088 376.54 25.9166C376.509 25.901 376.486 25.8933 376.455 25.8777ZM375.288 25.5744C375.304 25.5744 375.319 25.5744 375.335 25.5822C375.304 25.5744 375.272 25.5744 375.241 25.5666C375.257 25.5744 375.272 25.5744 375.288 25.5744ZM373.927 25.5744C373.943 25.5744 373.95 25.5666 373.966 25.5666C373.935 25.5744 373.904 25.5744 373.873 25.5822C373.888 25.5744 373.912 25.5744 373.927 25.5744ZM369.463 25.5666C369.479 25.5666 369.487 25.5666 369.502 25.5744C369.518 25.5744 369.541 25.5822 369.557 25.5822C369.525 25.5744 369.494 25.5744 369.463 25.5666ZM368.141 25.5744C368.157 25.5744 368.164 25.5666 368.18 25.5666C368.149 25.5744 368.118 25.5744 368.087 25.5822C368.102 25.5822 368.126 25.5744 368.141 25.5744ZM366.92 25.901C366.936 25.8933 366.951 25.8855 366.967 25.8777C366.936 25.8855 366.912 25.901 366.881 25.9088C366.897 25.9088 366.912 25.901 366.92 25.901ZM379.511 21.9971C377.419 19.9051 374.635 18.7542 371.672 18.7542C368.709 18.7542 365.925 19.9051 363.833 21.9971C361.741 24.089 360.59 26.8732 360.59 29.8361C360.59 32.7991 361.741 35.5832 363.833 37.6752C365.925 39.7671 368.709 40.9181 371.672 40.9181C374.635 40.9181 377.411 39.7671 379.511 37.6752C381.603 35.5832 382.754 32.7991 382.754 29.8361C382.754 26.8732 381.603 24.089 379.511 21.9971ZM365.746 26.1732C365.699 26.0955 365.691 25.9866 365.715 25.9088C365.738 25.8155 365.8 25.7533 365.87 25.6988C366.08 25.5433 366.298 25.4189 366.539 25.3178C367.542 24.8667 368.678 24.7501 369.759 24.9212C369.844 24.9367 369.922 25.0067 369.969 25.0767C370.023 25.1545 370.023 25.2556 370 25.3411C369.984 25.4267 369.914 25.5044 369.844 25.5511C369.759 25.6055 369.673 25.5978 369.58 25.59C369.557 25.5822 369.533 25.5822 369.51 25.5822C369.059 25.5278 368.6 25.5278 368.149 25.5822C367.729 25.6444 367.325 25.7455 366.936 25.9088C366.687 26.0177 366.454 26.1421 366.236 26.3054C366.065 26.4065 365.839 26.3132 365.746 26.1732ZM366.516 28.1174C366.516 27.0598 367.161 26.2043 367.962 26.2043C368.763 26.2043 369.409 27.0598 369.409 28.1174C369.409 29.1751 368.763 30.0305 367.962 30.0305C367.161 30.0305 366.516 29.1751 366.516 28.1174ZM375.91 33.8179C374.775 34.6966 373.344 35.1477 371.672 35.1477C370 35.1477 368.569 34.7044 367.433 33.8179C367.177 33.6234 367.13 33.2579 367.332 33.0013C367.527 32.7447 367.892 32.698 368.149 32.9002C369.082 33.6234 370.264 33.9889 371.68 33.9889C373.087 33.9889 374.277 33.6234 375.21 32.9002C375.319 32.8146 375.444 32.7758 375.568 32.7758C375.739 32.7758 375.91 32.8535 376.027 33.0013C376.213 33.2579 376.167 33.6234 375.91 33.8179ZM375.164 30.0305C374.363 30.0305 373.717 29.1751 373.717 28.1174C373.717 27.0598 374.363 26.2043 375.164 26.2043C375.965 26.2043 376.61 27.0598 376.61 28.1174C376.61 29.1751 375.965 30.0305 375.164 30.0305ZM377.676 26.1732C377.637 26.251 377.551 26.3132 377.466 26.3288C377.388 26.3521 377.263 26.3443 377.201 26.2977C376.983 26.1421 376.75 26.0099 376.501 25.901C376.112 25.7377 375.7 25.6366 375.288 25.5744C374.837 25.52 374.378 25.5122 373.927 25.5666C373.904 25.5666 373.873 25.5744 373.849 25.5744C373.748 25.59 373.67 25.5822 373.585 25.5355C373.507 25.4967 373.453 25.4111 373.422 25.3256C373.398 25.24 373.414 25.1311 373.46 25.0611C373.499 24.9912 373.585 24.9134 373.67 24.9056C373.982 24.859 374.3 24.8278 374.619 24.8278C375.156 24.8278 375.7 24.9056 376.221 25.0534C376.696 25.1934 377.162 25.3878 377.559 25.6833C377.637 25.7377 377.691 25.7999 377.714 25.8933C377.738 25.9944 377.714 26.0877 377.676 26.1732ZM376.455 25.8777C376.47 25.8855 376.486 25.8933 376.501 25.901C376.517 25.9088 376.525 25.9088 376.54 25.9166C376.509 25.901 376.486 25.8933 376.455 25.8777ZM375.249 25.5666C375.265 25.5666 375.28 25.5744 375.288 25.5744C375.304 25.5744 375.319 25.5744 375.335 25.5822C375.304 25.5744 375.28 25.5744 375.249 25.5666ZM373.873 25.5822C373.888 25.5822 373.912 25.5744 373.927 25.5744C373.943 25.5744 373.95 25.5666 373.966 25.5666C373.935 25.5744 373.904 25.5744 373.873 25.5822ZM369.463 25.5666C369.479 25.5666 369.487 25.5666 369.502 25.5744C369.518 25.5744 369.541 25.5822 369.557 25.5822C369.525 25.5744 369.494 25.5744 369.463 25.5666ZM368.087 25.5822C368.102 25.5822 368.126 25.5744 368.141 25.5744C368.157 25.5744 368.164 25.5666 368.18 25.5666C368.149 25.5744 368.118 25.5744 368.087 25.5822ZM366.881 25.9166C366.897 25.9088 366.905 25.9088 366.92 25.901C366.936 25.8933 366.951 25.8855 366.967 25.8777C366.944 25.8933 366.912 25.901 366.881 25.9166ZM366.881 25.9166C366.897 25.9088 366.905 25.9088 366.92 25.901C366.936 25.8933 366.951 25.8855 366.967 25.8777C366.944 25.8933 366.912 25.901 366.881 25.9166ZM368.087 25.5822C368.102 25.5822 368.126 25.5744 368.141 25.5744C368.157 25.5744 368.164 25.5666 368.18 25.5666C368.149 25.5744 368.118 25.5744 368.087 25.5822ZM369.463 25.5666C369.479 25.5666 369.487 25.5666 369.502 25.5744C369.518 25.5744 369.541 25.5822 369.557 25.5822C369.525 25.5744 369.494 25.5744 369.463 25.5666ZM373.873 25.5822C373.888 25.5822 373.912 25.5744 373.927 25.5744C373.943 25.5744 373.95 25.5666 373.966 25.5666C373.935 25.5744 373.904 25.5744 373.873 25.5822ZM375.249 25.5666C375.265 25.5666 375.28 25.5744 375.288 25.5744C375.304 25.5744 375.319 25.5744 375.335 25.5822C375.304 25.5744 375.28 25.5744 375.249 25.5666ZM376.455 25.8777C376.47 25.8855 376.486 25.8933 376.501 25.901C376.517 25.9088 376.525 25.9088 376.54 25.9166C376.509 25.901 376.486 25.8933 376.455 25.8777ZM376.455 25.8777C376.47 25.8855 376.486 25.8933 376.501 25.901C376.517 25.9088 376.525 25.9088 376.54 25.9166C376.509 25.901 376.486 25.8933 376.455 25.8777ZM375.249 25.5666C375.265 25.5666 375.28 25.5744 375.288 25.5744C375.304 25.5744 375.319 25.5744 375.335 25.5822C375.304 25.5744 375.28 25.5744 375.249 25.5666ZM373.873 25.5822C373.888 25.5822 373.912 25.5744 373.927 25.5744C373.943 25.5744 373.95 25.5666 373.966 25.5666C373.935 25.5744 373.904 25.5744 373.873 25.5822ZM369.463 25.5666C369.479 25.5666 369.487 25.5666 369.502 25.5744C369.518 25.5744 369.541 25.5822 369.557 25.5822C369.525 25.5744 369.494 25.5744 369.463 25.5666ZM368.087 25.5822C368.102 25.5822 368.126 25.5744 368.141 25.5744C368.157 25.5744 368.164 25.5666 368.18 25.5666C368.149 25.5744 368.118 25.5744 368.087 25.5822ZM366.881 25.9166C366.897 25.9088 366.905 25.9088 366.92 25.901C366.936 25.8933 366.951 25.8855 366.967 25.8777C366.944 25.8933 366.912 25.901 366.881 25.9166ZM366.881 25.9166C366.897 25.9088 366.905 25.9088 366.92 25.901C366.936 25.8933 366.951 25.8855 366.967 25.8777C366.944 25.8933 366.912 25.901 366.881 25.9166ZM368.087 25.5822C368.102 25.5822 368.126 25.5744 368.141 25.5744C368.157 25.5744 368.164 25.5666 368.18 25.5666C368.149 25.5744 368.118 25.5744 368.087 25.5822ZM369.463 25.5666C369.479 25.5666 369.487 25.5666 369.502 25.5744C369.518 25.5744 369.541 25.5822 369.557 25.5822C369.525 25.5744 369.494 25.5744 369.463 25.5666ZM373.873 25.5822C373.888 25.5822 373.912 25.5744 373.927 25.5744C373.943 25.5744 373.95 25.5666 373.966 25.5666C373.935 25.5744 373.904 25.5744 373.873 25.5822ZM375.249 25.5666C375.265 25.5666 375.28 25.5744 375.288 25.5744C375.304 25.5744 375.319 25.5744 375.335 25.5822C375.304 25.5744 375.28 25.5744 375.249 25.5666ZM376.455 25.8777C376.47 25.8855 376.486 25.8933 376.501 25.901C376.517 25.9088 376.525 25.9088 376.54 25.9166C376.509 25.901 376.486 25.8933 376.455 25.8777ZM376.455 25.8777C376.47 25.8855 376.486 25.8933 376.501 25.901C376.517 25.9088 376.525 25.9088 376.54 25.9166C376.509 25.901 376.486 25.8933 376.455 25.8777ZM375.249 25.5666C375.265 25.5666 375.28 25.5744 375.288 25.5744C375.304 25.5744 375.319 25.5744 375.335 25.5822C375.304 25.5744 375.28 25.5744 375.249 25.5666ZM373.873 25.5822C373.888 25.5822 373.912 25.5744 373.927 25.5744C373.943 25.5744 373.95 25.5666 373.966 25.5666C373.935 25.5744 373.904 25.5744 373.873 25.5822ZM369.463 25.5666C369.479 25.5666 369.487 25.5666 369.502 25.5744C369.518 25.5744 369.541 25.5822 369.557 25.5822C369.525 25.5744 369.494 25.5744 369.463 25.5666ZM368.087 25.5822C368.102 25.5822 368.126 25.5744 368.141 25.5744C368.157 25.5744 368.164 25.5666 368.18 25.5666C368.149 25.5744 368.118 25.5744 368.087 25.5822ZM366.881 25.9166C366.897 25.9088 366.905 25.9088 366.92 25.901C366.936 25.8933 366.951 25.8855 366.967 25.8777C366.944 25.8933 366.912 25.901 366.881 25.9166ZM366.881 25.9166C366.897 25.9088 366.905 25.9088 366.92 25.901C366.936 25.8933 366.951 25.8855 366.967 25.8777C366.944 25.8933 366.912 25.901 366.881 25.9166ZM368.087 25.5822C368.102 25.5822 368.126 25.5744 368.141 25.5744C368.157 25.5744 368.164 25.5666 368.18 25.5666C368.149 25.5744 368.118 25.5744 368.087 25.5822ZM369.463 25.5666C369.479 25.5666 369.487 25.5666 369.502 25.5744C369.518 25.5744 369.541 25.5822 369.557 25.5822C369.525 25.5744 369.494 25.5744 369.463 25.5666ZM373.873 25.5822C373.888 25.5822 373.912 25.5744 373.927 25.5744C373.943 25.5744 373.95 25.5666 373.966 25.5666C373.935 25.5744 373.904 25.5744 373.873 25.5822ZM375.249 25.5666C375.265 25.5666 375.28 25.5744 375.288 25.5744C375.304 25.5744 375.319 25.5744 375.335 25.5822C375.304 25.5744 375.28 25.5744 375.249 25.5666ZM376.455 25.8777C376.47 25.8855 376.486 25.8933 376.501 25.901C376.517 25.9088 376.525 25.9088 376.54 25.9166C376.509 25.901 376.486 25.8933 376.455 25.8777ZM376.455 25.8777C376.47 25.8855 376.486 25.8933 376.501 25.901C376.517 25.9088 376.525 25.9088 376.54 25.9166C376.509 25.901 376.486 25.8933 376.455 25.8777ZM375.249 25.5666C375.265 25.5666 375.28 25.5744 375.288 25.5744C375.304 25.5744 375.319 25.5744 375.335 25.5822C375.304 25.5744 375.28 25.5744 375.249 25.5666ZM373.873 25.5822C373.888 25.5822 373.912 25.5744 373.927 25.5744C373.943 25.5744 373.95 25.5666 373.966 25.5666C373.935 25.5744 373.904 25.5744 373.873 25.5822ZM369.463 25.5666C369.479 25.5666 369.487 25.5666 369.502 25.5744C369.518 25.5744 369.541 25.5822 369.557 25.5822C369.525 25.5744 369.494 25.5744 369.463 25.5666ZM368.087 25.5822C368.102 25.5822 368.126 25.5744 368.141 25.5744C368.157 25.5744 368.164 25.5666 368.18 25.5666C368.149 25.5744 368.118 25.5744 368.087 25.5822ZM366.881 25.9166C366.897 25.9088 366.905 25.9088 366.92 25.901C366.936 25.8933 366.951 25.8855 366.967 25.8777C366.944 25.8933 366.912 25.901 366.881 25.9166ZM366.881 25.9166C366.897 25.9088 366.905 25.9088 366.92 25.901C366.936 25.8933 366.951 25.8855 366.967 25.8777C366.944 25.8933 366.912 25.901 366.881 25.9166ZM368.087 25.5822C368.102 25.5822 368.126 25.5744 368.141 25.5744C368.157 25.5744 368.164 25.5666 368.18 25.5666C368.149 25.5744 368.118 25.5744 368.087 25.5822ZM369.463 25.5666C369.479 25.5666 369.487 25.5666 369.502 25.5744C369.518 25.5744 369.541 25.5822 369.557 25.5822C369.525 25.5744 369.494 25.5744 369.463 25.5666ZM369.463 25.5666C369.479 25.5666 369.487 25.5666 369.502 25.5744C369.518 25.5744 369.541 25.5822 369.557 25.5822C369.525 25.5744 369.494 25.5744 369.463 25.5666ZM368.087 25.5822C368.102 25.5822 368.126 25.5744 368.141 25.5744C368.157 25.5744 368.164 25.5666 368.18 25.5666C368.149 25.5744 368.118 25.5744 368.087 25.5822ZM366.881 25.9166C366.897 25.9088 366.905 25.9088 366.92 25.901C366.936 25.8933 366.951 25.8855 366.967 25.8777C366.944 25.8933 366.912 25.901 366.881 25.9166Z" fill="#42C79B"/>
<path d="M130.597 3.24293C128.505 1.15097 125.721 0 122.758 0C119.795 0 117.018 1.15097 114.919 3.24293C112.827 5.3349 111.676 8.119 111.676 11.082C111.676 14.0449 112.827 16.829 114.919 18.921C117.011 21.013 119.795 22.1639 122.758 22.1639C125.721 22.1639 128.497 21.013 130.597 18.921C132.689 16.829 133.84 14.0449 133.84 11.082C133.84 8.119 132.689 5.3349 130.597 3.24293ZM117.205 6.49364C117.197 6.307 117.368 6.14369 117.555 6.14369H120.549C120.744 6.14369 120.884 6.29922 120.891 6.49364C120.899 6.68029 120.728 6.8436 120.549 6.8436H117.555C117.361 6.83582 117.213 6.68029 117.205 6.49364ZM119.048 11.2764C118.247 11.2764 117.602 10.4209 117.602 9.36329C117.602 8.30564 118.247 7.45019 119.048 7.45019C119.849 7.45019 120.495 8.30564 120.495 9.36329C120.495 10.4209 119.849 11.2764 119.048 11.2764ZM124.686 15.7869H120.829C120.51 15.7869 120.246 15.5303 120.246 15.2037C120.246 14.8848 120.502 14.6204 120.829 14.6204H124.686C125.005 14.6204 125.27 14.8771 125.27 15.2037C125.262 15.5303 125.005 15.7869 124.686 15.7869ZM126.25 11.2764C125.449 11.2764 124.803 10.4209 124.803 9.36329C124.803 8.30564 125.449 7.45019 126.25 7.45019C127.051 7.45019 127.696 8.30564 127.696 9.36329C127.696 10.4209 127.051 11.2764 126.25 11.2764ZM127.743 6.83582H124.749C124.554 6.83582 124.414 6.68029 124.406 6.48587C124.399 6.29922 124.57 6.13591 124.749 6.13591H127.743C127.937 6.13591 128.077 6.29145 128.093 6.48587C128.1 6.68029 127.929 6.83582 127.743 6.83582Z" fill="#DCAF47"/>
<path d="M455.02 187.266C455.028 187.266 455.044 187.266 455.051 187.274C455.075 187.274 455.09 187.282 455.114 187.282C455.083 187.274 455.051 187.274 455.02 187.266ZM455.86 187.492C455.868 187.5 455.876 187.5 455.891 187.507C455.907 187.515 455.93 187.523 455.946 187.531C455.915 187.515 455.891 187.5 455.86 187.492ZM455.891 187.5C455.907 187.507 455.93 187.515 455.946 187.523C455.915 187.515 455.891 187.5 455.86 187.492C455.868 187.492 455.876 187.5 455.891 187.5ZM455.051 187.274C455.075 187.274 455.09 187.282 455.114 187.282C455.083 187.274 455.051 187.274 455.02 187.266C455.028 187.274 455.036 187.274 455.051 187.274ZM458.792 184.817C456.7 182.725 453.916 181.574 450.953 181.574C447.99 181.574 445.206 182.725 443.114 184.817C441.022 186.909 439.871 189.693 439.871 192.656C439.871 195.619 441.022 198.395 443.114 200.495C445.206 202.587 447.99 203.738 450.953 203.738C453.916 203.738 456.692 202.587 458.792 200.495C460.884 198.403 462.035 195.619 462.035 192.656C462.035 189.693 460.884 186.909 458.792 184.817ZM445.696 187.958C445.704 187.958 445.704 187.951 445.711 187.951C445.719 187.951 445.719 187.943 445.719 187.943C445.711 187.951 445.696 187.958 445.688 187.966C445.688 187.966 445.688 187.966 445.696 187.958C445.68 187.974 445.665 187.982 445.657 187.99C445.626 188.013 445.595 188.044 445.564 188.067C445.502 188.122 445.447 188.168 445.393 188.231C445.284 188.34 445.175 188.456 445.074 188.581C445.019 188.651 444.918 188.682 444.833 188.682C444.739 188.69 444.654 188.643 444.592 188.581C444.529 188.526 444.491 188.417 444.491 188.34C444.491 188.238 444.529 188.168 444.592 188.098C444.732 187.927 444.887 187.764 445.05 187.609C445.362 187.329 445.711 187.095 446.093 186.924C446.505 186.738 446.925 186.629 447.368 186.582C447.562 186.559 447.702 186.753 447.71 186.932C447.718 187.018 447.671 187.119 447.609 187.173C447.539 187.243 447.461 187.266 447.368 187.274C447.352 187.274 447.337 187.282 447.321 187.282C447.034 187.321 446.754 187.399 446.481 187.507C446.201 187.624 445.945 187.78 445.696 187.958ZM446.777 192.158C446.73 192.08 446.715 191.964 446.738 191.878C446.769 191.777 446.824 191.722 446.909 191.66C446.94 191.637 446.971 191.606 447.01 191.582C447.034 191.567 447.057 191.544 447.088 191.528C447.337 191.334 447.578 191.147 447.811 190.945C447.555 190.735 447.298 190.533 447.034 190.33C447.026 190.323 447.018 190.315 447.01 190.307C446.979 190.284 446.948 190.253 446.909 190.229C446.831 190.167 446.769 190.105 446.738 190.012C446.707 189.918 446.73 189.817 446.777 189.732C446.816 189.654 446.909 189.584 446.995 189.561C447.072 189.537 447.205 189.545 447.275 189.599C447.733 189.949 448.192 190.307 448.628 190.688C448.768 190.813 448.768 191.085 448.628 191.209C448.192 191.59 447.733 191.948 447.275 192.298C447.197 192.352 447.08 192.352 446.995 192.337C446.901 192.298 446.831 192.236 446.777 192.158ZM455.495 195.891C455.347 196.303 455.098 196.669 454.818 196.995C453.924 198.014 452.524 198.535 451.186 198.519C449.429 198.543 447.531 197.594 446.878 195.891C446.699 195.416 447.166 194.919 447.648 195.074C447.99 195.183 448.332 195.323 448.674 195.424C450.378 195.945 452.228 195.922 453.916 195.354C454.157 195.269 454.398 195.175 454.639 195.098C454.787 195.043 454.95 195.028 455.106 195.082C455.44 195.206 455.611 195.564 455.495 195.891ZM455.596 192.158C455.557 192.236 455.464 192.306 455.378 192.329C455.3 192.352 455.168 192.345 455.098 192.29C454.639 191.94 454.18 191.582 453.745 191.201C453.605 191.077 453.605 190.805 453.745 190.68C454.18 190.299 454.639 189.942 455.098 189.592C455.176 189.537 455.293 189.537 455.378 189.553C455.471 189.576 455.549 189.646 455.596 189.724C455.642 189.802 455.658 189.918 455.635 190.004C455.604 190.105 455.549 190.159 455.464 190.222C455.425 190.253 455.378 190.284 455.339 190.315C455.075 190.517 454.818 190.719 454.562 190.929C454.803 191.124 455.044 191.318 455.285 191.513C455.3 191.528 455.316 191.536 455.331 191.551C455.37 191.582 455.417 191.614 455.456 191.645C455.534 191.707 455.596 191.769 455.627 191.862C455.666 191.964 455.642 192.072 455.596 192.158ZM457.781 188.581C457.727 188.643 457.626 188.682 457.54 188.682C457.462 188.682 457.346 188.643 457.299 188.581C457.198 188.456 457.097 188.34 456.98 188.231C456.926 188.176 456.863 188.122 456.809 188.067C456.778 188.036 456.747 188.013 456.708 187.982C456.7 187.974 456.692 187.974 456.692 187.966L456.685 187.958L456.677 187.951C456.677 187.951 456.685 187.951 456.685 187.958C456.436 187.78 456.179 187.624 455.899 187.5C455.627 187.391 455.347 187.313 455.059 187.274C455.044 187.274 455.028 187.266 455.013 187.266C454.919 187.259 454.841 187.227 454.771 187.165C454.701 187.103 454.67 187.01 454.67 186.924C454.663 186.839 454.709 186.738 454.771 186.683C454.826 186.629 454.935 186.574 455.013 186.582C455.261 186.605 455.502 186.652 455.744 186.722C456.545 186.955 457.276 187.445 457.797 188.098C457.859 188.176 457.898 188.246 457.898 188.34C457.89 188.425 457.843 188.511 457.781 188.581ZM455.86 187.492C455.868 187.5 455.876 187.5 455.891 187.507C455.907 187.515 455.93 187.523 455.946 187.531C455.915 187.515 455.891 187.5 455.86 187.492ZM455.02 187.266C455.028 187.266 455.044 187.266 455.051 187.274C455.075 187.274 455.09 187.282 455.114 187.282C455.083 187.274 455.051 187.274 455.02 187.266ZM447.259 187.282C447.282 187.282 447.298 187.274 447.321 187.274C447.329 187.274 447.345 187.274 447.352 187.266C447.321 187.274 447.29 187.274 447.259 187.282ZM446.427 187.523C446.443 187.515 446.466 187.507 446.481 187.5L446.505 187.484C446.481 187.5 446.458 187.515 446.427 187.523Z" fill="#058254"/>
<g filter="url(#filter0_d_2901_10528)">
<rect x="147.477" y="92.918" width="167.082" height="167.082" rx="83.541" fill="white"/>
</g>
<path d="M292.49 144.365L280.159 143.819C279.404 143.785 278.886 144.57 279.214 145.252L284.416 156.053C284.748 156.743 285.701 156.819 286.138 156.19L293.267 145.935C293.716 145.289 293.276 144.4 292.49 144.365Z" fill="#59595A"/>
<rect x="172" y="118.295" width="118.033" height="118.033" rx="59.0164" fill="#816BFE"/>
<path d="M220.265 160.398L213.044 177.311H209.189L216.464 160.833H207.18V157.575H220.265V160.398Z" fill="white"/>
<path d="M226.939 171.746C227.084 172.542 227.41 173.158 227.916 173.592C228.441 174.008 229.138 174.216 230.007 174.216C231.129 174.216 231.943 173.755 232.45 172.832C232.957 171.891 233.21 170.316 233.21 168.108C232.794 168.687 232.206 169.14 231.446 169.466C230.704 169.791 229.898 169.954 229.029 169.954C227.871 169.954 226.821 169.719 225.88 169.248C224.957 168.76 224.224 168.045 223.681 167.104C223.138 166.145 222.867 164.986 222.867 163.629C222.867 161.62 223.464 160.027 224.659 158.851C225.853 157.656 227.482 157.059 229.545 157.059C232.115 157.059 233.925 157.883 234.975 159.53C236.043 161.177 236.576 163.656 236.576 166.968C236.576 169.321 236.368 171.248 235.952 172.75C235.554 174.253 234.857 175.393 233.862 176.171C232.884 176.949 231.545 177.338 229.844 177.338C228.505 177.338 227.364 177.085 226.423 176.578C225.482 176.053 224.758 175.375 224.251 174.542C223.763 173.692 223.482 172.76 223.41 171.746H226.939ZM229.817 166.859C230.758 166.859 231.5 166.57 232.043 165.991C232.586 165.412 232.857 164.633 232.857 163.656C232.857 162.588 232.568 161.765 231.989 161.186C231.427 160.588 230.658 160.29 229.681 160.29C228.704 160.29 227.925 160.597 227.346 161.213C226.785 161.81 226.505 162.606 226.505 163.602C226.505 164.561 226.776 165.348 227.319 165.964C227.88 166.561 228.713 166.859 229.817 166.859Z" fill="white"/>
<path d="M239.535 167.158C239.535 164.027 240.096 161.575 241.218 159.801C242.358 158.027 244.24 157.141 246.865 157.141C249.489 157.141 251.362 158.027 252.484 159.801C253.624 161.575 254.195 164.027 254.195 167.158C254.195 170.307 253.624 172.778 252.484 174.569C251.362 176.361 249.489 177.257 246.865 177.257C244.24 177.257 242.358 176.361 241.218 174.569C240.096 172.778 239.535 170.307 239.535 167.158ZM250.448 167.158C250.448 165.819 250.358 164.697 250.177 163.792C250.014 162.869 249.67 162.118 249.145 161.539C248.638 160.959 247.878 160.67 246.865 160.67C245.851 160.67 245.082 160.959 244.557 161.539C244.05 162.118 243.707 162.869 243.526 163.792C243.363 164.697 243.281 165.819 243.281 167.158C243.281 168.534 243.363 169.692 243.526 170.633C243.688 171.556 244.032 172.307 244.557 172.886C245.082 173.447 245.851 173.728 246.865 173.728C247.878 173.728 248.647 173.447 249.172 172.886C249.697 172.307 250.041 171.556 250.204 170.633C250.367 169.692 250.448 168.534 250.448 167.158Z" fill="white"/>
<path d="M201.839 190.354C201.626 189.945 201.331 189.638 200.953 189.433C200.576 189.221 200.139 189.115 199.643 189.115C199.1 189.115 198.616 189.237 198.191 189.48C197.767 189.724 197.432 190.071 197.188 190.519C196.952 190.968 196.834 191.487 196.834 192.077C196.834 192.667 196.952 193.191 197.188 193.647C197.432 194.096 197.767 194.442 198.191 194.686C198.616 194.93 199.1 195.052 199.643 195.052C200.375 195.052 200.969 194.847 201.426 194.438C201.882 194.029 202.161 193.474 202.264 192.774H199.183V191.699H203.704V192.75C203.617 193.387 203.389 193.974 203.019 194.509C202.657 195.044 202.181 195.473 201.591 195.795C201.009 196.11 200.359 196.267 199.643 196.267C198.872 196.267 198.168 196.09 197.531 195.736C196.893 195.374 196.386 194.875 196.008 194.237C195.638 193.6 195.453 192.88 195.453 192.077C195.453 191.275 195.638 190.555 196.008 189.917C196.386 189.28 196.893 188.784 197.531 188.43C198.176 188.068 198.88 187.887 199.643 187.887C200.517 187.887 201.292 188.103 201.969 188.536C202.653 188.961 203.149 189.567 203.456 190.354H201.839Z" fill="white"/>
<path d="M207.852 196.303C207.238 196.303 206.683 196.165 206.187 195.89C205.692 195.606 205.302 195.213 205.019 194.709C204.736 194.198 204.594 193.608 204.594 192.939C204.594 192.278 204.74 191.692 205.031 191.18C205.322 190.669 205.719 190.275 206.223 190C206.726 189.724 207.289 189.587 207.911 189.587C208.532 189.587 209.095 189.724 209.599 190C210.102 190.275 210.5 190.669 210.791 191.18C211.082 191.692 211.227 192.278 211.227 192.939C211.227 193.6 211.078 194.186 210.779 194.698C210.48 195.209 210.071 195.606 209.551 195.89C209.04 196.165 208.473 196.303 207.852 196.303ZM207.852 195.134C208.198 195.134 208.521 195.052 208.82 194.886C209.126 194.721 209.374 194.473 209.563 194.143C209.752 193.812 209.846 193.411 209.846 192.939C209.846 192.467 209.756 192.069 209.575 191.747C209.394 191.416 209.154 191.168 208.855 191.003C208.556 190.838 208.233 190.755 207.887 190.755C207.541 190.755 207.218 190.838 206.919 191.003C206.628 191.168 206.396 191.416 206.223 191.747C206.05 192.069 205.963 192.467 205.963 192.939C205.963 193.639 206.14 194.182 206.494 194.568C206.856 194.945 207.309 195.134 207.852 195.134Z" fill="white"/>
<path d="M215.379 196.303C214.765 196.303 214.21 196.165 213.714 195.89C213.219 195.606 212.829 195.213 212.546 194.709C212.263 194.198 212.121 193.608 212.121 192.939C212.121 192.278 212.266 191.692 212.558 191.18C212.849 190.669 213.246 190.275 213.75 190C214.253 189.724 214.816 189.587 215.438 189.587C216.059 189.587 216.622 189.724 217.126 190C217.629 190.275 218.026 190.669 218.318 191.18C218.609 191.692 218.754 192.278 218.754 192.939C218.754 193.6 218.605 194.186 218.306 194.698C218.007 195.209 217.598 195.606 217.078 195.89C216.567 196.165 216 196.303 215.379 196.303ZM215.379 195.134C215.725 195.134 216.047 195.052 216.346 194.886C216.653 194.721 216.901 194.473 217.09 194.143C217.279 193.812 217.373 193.411 217.373 192.939C217.373 192.467 217.283 192.069 217.102 191.747C216.921 191.416 216.681 191.168 216.382 191.003C216.083 190.838 215.76 190.755 215.414 190.755C215.068 190.755 214.745 190.838 214.446 191.003C214.155 191.168 213.923 191.416 213.75 191.747C213.577 192.069 213.49 192.467 213.49 192.939C213.49 193.639 213.667 194.182 214.021 194.568C214.383 194.945 214.836 195.134 215.379 195.134Z" fill="white"/>
<path d="M219.636 192.915C219.636 192.262 219.77 191.684 220.037 191.18C220.313 190.677 220.683 190.287 221.147 190.012C221.619 189.728 222.142 189.587 222.717 189.587C223.142 189.587 223.559 189.681 223.968 189.87C224.385 190.051 224.715 190.295 224.959 190.602V187.462H226.317V196.197H224.959V195.217C224.739 195.532 224.432 195.791 224.039 195.996C223.653 196.2 223.208 196.303 222.705 196.303C222.138 196.303 221.619 196.161 221.147 195.878C220.683 195.587 220.313 195.185 220.037 194.674C219.77 194.155 219.636 193.568 219.636 192.915ZM224.959 192.939C224.959 192.49 224.865 192.101 224.676 191.77C224.495 191.44 224.255 191.188 223.956 191.015C223.657 190.842 223.334 190.755 222.988 190.755C222.642 190.755 222.319 190.842 222.02 191.015C221.721 191.18 221.477 191.428 221.288 191.758C221.107 192.081 221.017 192.467 221.017 192.915C221.017 193.364 221.107 193.757 221.288 194.096C221.477 194.434 221.721 194.694 222.02 194.875C222.327 195.048 222.65 195.134 222.988 195.134C223.334 195.134 223.657 195.048 223.956 194.875C224.255 194.701 224.495 194.45 224.676 194.119C224.865 193.781 224.959 193.387 224.959 192.939Z" fill="white"/>
<path d="M233.853 196.279C233.302 196.279 232.807 196.185 232.366 195.996C231.925 195.799 231.579 195.524 231.327 195.17C231.075 194.816 230.949 194.402 230.949 193.93H232.389C232.421 194.284 232.559 194.576 232.803 194.804C233.054 195.032 233.405 195.146 233.853 195.146C234.317 195.146 234.679 195.036 234.939 194.816C235.199 194.587 235.328 194.296 235.328 193.942C235.328 193.667 235.246 193.442 235.081 193.269C234.923 193.096 234.723 192.962 234.479 192.868C234.243 192.774 233.912 192.671 233.487 192.561C232.952 192.419 232.515 192.278 232.177 192.136C231.847 191.987 231.563 191.758 231.327 191.452C231.091 191.145 230.973 190.736 230.973 190.224C230.973 189.752 231.091 189.339 231.327 188.985C231.563 188.631 231.894 188.359 232.319 188.17C232.744 187.981 233.235 187.887 233.794 187.887C234.589 187.887 235.238 188.088 235.742 188.489C236.253 188.882 236.536 189.425 236.591 190.118H235.104C235.081 189.819 234.939 189.563 234.679 189.351C234.42 189.138 234.077 189.032 233.652 189.032C233.267 189.032 232.952 189.13 232.708 189.327C232.464 189.524 232.342 189.807 232.342 190.177C232.342 190.429 232.417 190.637 232.567 190.802C232.724 190.96 232.921 191.086 233.157 191.18C233.393 191.275 233.715 191.377 234.125 191.487C234.667 191.637 235.108 191.786 235.447 191.936C235.793 192.085 236.084 192.317 236.32 192.632C236.564 192.939 236.686 193.352 236.686 193.871C236.686 194.288 236.572 194.682 236.344 195.052C236.123 195.421 235.797 195.72 235.364 195.949C234.939 196.169 234.435 196.279 233.853 196.279Z" fill="white"/>
<path d="M237.825 192.939C237.825 192.27 237.959 191.684 238.226 191.18C238.502 190.669 238.879 190.275 239.359 190C239.839 189.724 240.39 189.587 241.012 189.587C241.799 189.587 242.448 189.776 242.959 190.153C243.479 190.523 243.829 191.054 244.01 191.747H242.558C242.44 191.424 242.251 191.172 241.992 190.991C241.732 190.81 241.405 190.72 241.012 190.72C240.461 190.72 240.02 190.917 239.69 191.31C239.367 191.696 239.206 192.238 239.206 192.939C239.206 193.639 239.367 194.186 239.69 194.579C240.02 194.973 240.461 195.17 241.012 195.17C241.791 195.17 242.306 194.827 242.558 194.143H244.01C243.821 194.804 243.467 195.331 242.948 195.724C242.428 196.11 241.783 196.303 241.012 196.303C240.39 196.303 239.839 196.165 239.359 195.89C238.879 195.606 238.502 195.213 238.226 194.709C237.959 194.198 237.825 193.608 237.825 192.939Z" fill="white"/>
<path d="M248.172 196.303C247.558 196.303 247.003 196.165 246.508 195.89C246.012 195.606 245.622 195.213 245.339 194.709C245.056 194.198 244.914 193.608 244.914 192.939C244.914 192.278 245.06 191.692 245.351 191.18C245.642 190.669 246.039 190.275 246.543 190C247.047 189.724 247.609 189.587 248.231 189.587C248.853 189.587 249.415 189.724 249.919 190C250.422 190.275 250.82 190.669 251.111 191.18C251.402 191.692 251.548 192.278 251.548 192.939C251.548 193.6 251.398 194.186 251.099 194.698C250.8 195.209 250.391 195.606 249.872 195.89C249.36 196.165 248.794 196.303 248.172 196.303ZM248.172 195.134C248.518 195.134 248.841 195.052 249.14 194.886C249.447 194.721 249.695 194.473 249.883 194.143C250.072 193.812 250.167 193.411 250.167 192.939C250.167 192.467 250.076 192.069 249.895 191.747C249.714 191.416 249.474 191.168 249.175 191.003C248.876 190.838 248.554 190.755 248.207 190.755C247.861 190.755 247.538 190.838 247.239 191.003C246.948 191.168 246.716 191.416 246.543 191.747C246.37 192.069 246.283 192.467 246.283 192.939C246.283 193.639 246.46 194.182 246.815 194.568C247.177 194.945 247.629 195.134 248.172 195.134Z" fill="white"/>
<path d="M254.223 190.637C254.42 190.307 254.68 190.051 255.002 189.87C255.333 189.681 255.722 189.587 256.171 189.587V190.979H255.829C255.301 190.979 254.9 191.113 254.625 191.381C254.357 191.648 254.223 192.113 254.223 192.774V196.197H252.878V189.693H254.223V190.637Z" fill="white"/>
<path d="M263.368 192.785C263.368 193.029 263.353 193.25 263.321 193.446H258.352C258.391 193.966 258.584 194.383 258.93 194.698C259.277 195.012 259.702 195.17 260.205 195.17C260.929 195.17 261.441 194.867 261.74 194.261H263.191C262.995 194.859 262.637 195.351 262.117 195.736C261.606 196.114 260.968 196.303 260.205 196.303C259.584 196.303 259.025 196.165 258.529 195.89C258.041 195.606 257.656 195.213 257.372 194.709C257.097 194.198 256.959 193.608 256.959 192.939C256.959 192.27 257.093 191.684 257.361 191.18C257.636 190.669 258.018 190.275 258.506 190C259.001 189.724 259.568 189.587 260.205 189.587C260.819 189.587 261.366 189.72 261.846 189.988C262.326 190.256 262.7 190.633 262.967 191.121C263.235 191.601 263.368 192.156 263.368 192.785ZM261.964 192.36C261.956 191.865 261.779 191.467 261.433 191.168C261.086 190.869 260.658 190.72 260.146 190.72C259.682 190.72 259.285 190.869 258.954 191.168C258.624 191.459 258.427 191.857 258.364 192.36H261.964Z" fill="white"/>
<path d="M266.381 187.993L266.227 193.718H265.106L264.952 187.993H266.381ZM265.708 196.279C265.464 196.279 265.259 196.197 265.094 196.031C264.929 195.866 264.846 195.661 264.846 195.418C264.846 195.174 264.929 194.969 265.094 194.804C265.259 194.638 265.464 194.556 265.708 194.556C265.944 194.556 266.144 194.638 266.31 194.804C266.475 194.969 266.558 195.174 266.558 195.418C266.558 195.661 266.475 195.866 266.31 196.031C266.144 196.197 265.944 196.279 265.708 196.279Z" fill="white"/>
<defs>
<filter id="filter0_d_2901_10528" x="133.477" y="82.918" width="195.082" height="195.082" filterUnits="userSpaceOnUse" color-interpolation-filters="sRGB">
<feFlood flood-opacity="0" result="BackgroundImageFix"/>
<feColorMatrix in="SourceAlpha" type="matrix" values="0 0 0 0 0 0 0 0 0 0 0 0 0 0 0 0 0 0 127 0" result="hardAlpha"/>
<feOffset dy="4"/>
<feGaussianBlur stdDeviation="7"/>
<feComposite in2="hardAlpha" operator="out"/>
<feColorMatrix type="matrix" values="0 0 0 0 0 0 0 0 0 0 0 0 0 0 0 0 0 0 0.12 0"/>
<feBlend mode="normal" in2="BackgroundImageFix" result="effect1_dropShadow_2901_10528"/>
<feBlend mode="normal" in="SourceGraphic" in2="effect1_dropShadow_2901_10528" result="shape"/>
</filter>
</defs>
</svg>
