<svg width="292" height="292" viewBox="0 0 292 292" fill="none" xmlns="http://www.w3.org/2000/svg">
<path opacity="0.5" d="M146 292C226.634 292 292 226.634 292 146C292 65.3664 226.634 0 146 0C65.3664 0 0 65.3664 0 146C0 226.634 65.3664 292 146 292Z" fill="#EEECFF"/>
<path d="M104.307 145.462C104.307 127.034 104.257 108.606 104.307 90.1787C104.307 82.7176 109.065 77.0591 116.325 75.6069C117.277 75.4567 118.228 75.4066 119.13 75.4066C137.257 75.4066 155.384 75.4066 173.461 75.4066C181.924 75.4066 188.283 81.7661 188.283 90.2288C188.283 127.084 188.283 163.939 188.283 200.794C188.283 209.257 181.924 215.567 173.461 215.567C155.334 215.567 137.257 215.567 119.13 215.567C110.767 215.567 104.357 209.307 104.357 200.945C104.257 182.467 104.307 163.989 104.307 145.462ZM124.588 80.6645C122.985 80.6645 121.583 80.6645 120.131 80.6645C113.371 80.6645 109.565 84.4702 109.565 91.1802C109.565 127.334 109.565 163.489 109.565 199.643C109.565 206.653 113.321 210.359 120.331 210.359C137.607 210.359 154.933 210.359 172.209 210.359C179.32 210.359 183.025 206.653 183.025 199.493C183.025 171.25 183.025 143.058 183.025 114.816C183.025 106.704 183.075 98.5913 183.025 90.4792C183.025 86.373 181.173 83.2183 177.417 81.5158C174.412 80.1637 171.208 80.7146 168.003 80.7146C168.003 81.9664 168.003 82.9679 168.003 83.9694C167.903 88.5263 164.598 91.8813 160.041 91.9314C150.777 91.9814 141.563 91.9814 132.299 91.9314C127.993 91.9314 124.638 88.5263 124.538 84.2198C124.588 83.018 124.588 81.9164 124.588 80.6645ZM129.846 80.7146C129.846 81.5658 129.846 82.317 129.846 83.0681C129.846 85.7721 130.747 86.6234 133.451 86.6735C135.654 86.6735 137.808 86.6735 140.011 86.6735C146.521 86.6735 152.98 86.6735 159.49 86.6735C161.743 86.6735 162.695 85.7221 162.795 83.5188C162.845 82.6174 162.795 81.7161 162.795 80.7146C151.728 80.7146 140.912 80.7146 129.846 80.7146Z" fill="#6147FF"/>
<path d="M146.32 203.148C141.162 203.148 135.954 203.148 130.797 203.148C129.344 203.148 128.193 202.697 127.692 201.245C127.141 199.693 128.093 198.191 129.745 197.89C130.396 197.79 131.097 197.79 131.798 197.79C141.463 197.79 151.127 197.79 160.842 197.79C161.292 197.79 161.693 197.79 162.144 197.79C164.097 197.89 165.098 198.842 165.098 200.444C165.098 201.996 163.946 203.098 162.094 203.098C156.836 203.198 151.578 203.148 146.32 203.148Z" fill="#6147FF"/>
<path d="M165.57 139.819C166.611 138.418 166.611 136.5 165.57 135.098C164.8 134.069 164.578 132.729 164.974 131.506C165.37 130.283 166.336 129.328 167.563 128.946C169.233 128.425 170.363 126.87 170.343 125.122C170.331 123.839 170.941 122.631 171.981 121.879C173.02 121.128 174.359 120.927 175.573 121.34C175.98 121.478 176.407 121.549 176.837 121.55C178.121 121.55 179.325 120.929 180.068 119.882C180.811 118.834 182.015 118.211 183.299 118.211C184.583 118.211 185.788 118.834 186.53 119.882C187.273 120.929 188.478 121.55 189.762 121.55C190.192 121.549 190.619 121.478 191.026 121.34C192.244 120.919 193.592 121.119 194.636 121.875C195.68 122.631 196.29 123.849 196.271 125.138C196.257 126.876 197.378 128.421 199.035 128.946C200.259 129.329 201.222 130.282 201.618 131.502C202.014 132.722 201.794 134.059 201.029 135.088C199.988 136.49 199.988 138.407 201.029 139.809C201.799 140.838 202.021 142.178 201.625 143.401C201.228 144.624 200.263 145.579 199.035 145.962C197.366 146.483 196.236 148.037 196.255 149.785C196.275 151.074 195.664 152.292 194.62 153.048C193.576 153.804 192.229 154.004 191.01 153.583C189.353 153.025 187.526 153.62 186.515 155.046C185.772 156.094 184.568 156.717 183.284 156.717C181.999 156.717 180.795 156.094 180.052 155.046C179.041 153.62 177.214 153.025 175.557 153.583C174.339 154.004 172.991 153.804 171.947 153.048C170.903 152.292 170.293 151.074 170.312 149.785C170.335 148.045 169.22 146.494 167.563 145.962C166.339 145.578 165.377 144.625 164.981 143.405C164.585 142.185 164.805 140.849 165.57 139.819Z" fill="#1AC18F"/>
<path d="M191.718 132.237L182.027 142.881L176.562 138.573" stroke="white" stroke-width="1.3" stroke-linecap="round"/>
</svg>
