<svg width="18" height="18" viewBox="0 0 18 18" fill="none" xmlns="http://www.w3.org/2000/svg">
<g opacity="0.6">
<path d="M17.2406 8.24979C17.0417 8.24979 16.8509 8.32881 16.7102 8.46946C16.5696 8.61011 16.4906 8.80087 16.4906 8.99977C16.4967 10.7437 15.8969 12.4356 14.7938 13.7863C13.6906 15.137 12.1526 16.0626 10.4427 16.4049C8.73267 16.7473 6.95686 16.4851 5.41876 15.6633C3.88065 14.8414 2.67574 13.5108 2.00998 11.899C1.34421 10.2871 1.25893 8.49409 1.7687 6.82633C2.27847 5.15858 3.35164 3.71965 4.80479 2.75548C6.25794 1.79132 8.00085 1.36178 9.73561 1.54029C11.4704 1.7188 13.0893 2.49427 14.3156 3.73416C14.291 3.74088 14.2659 3.74614 14.2406 3.74991H11.9907C11.7918 3.74991 11.601 3.82892 11.4604 3.96957C11.3197 4.11022 11.2407 4.30098 11.2407 4.49989C11.2407 4.69879 11.3197 4.88955 11.4604 5.0302C11.601 5.17085 11.7918 5.24987 11.9907 5.24987H14.2406C14.8374 5.24987 15.4096 5.01282 15.8316 4.59087C16.2535 4.16893 16.4906 3.59665 16.4906 2.99992V0.749981C16.4906 0.551074 16.4116 0.360313 16.2709 0.219664C16.1303 0.0790156 15.9395 0 15.7406 0C15.5417 0 15.3509 0.0790156 15.2103 0.219664C15.0696 0.360313 14.9906 0.551074 14.9906 0.749981V2.29869C13.4551 0.925874 11.4949 0.121622 9.43765 0.0203264C7.3804 -0.0809689 5.3507 0.526829 3.68772 1.74216C2.02473 2.95748 0.829208 4.70672 0.300915 6.69756C-0.227379 8.6884 -0.0564373 10.8002 0.785176 12.6802C1.62679 14.5601 3.08809 16.0943 4.92489 17.0264C6.76169 17.9584 8.86272 18.2318 10.8769 17.801C12.8911 17.3701 14.6964 16.2611 15.9911 14.6592C17.2859 13.0573 17.9917 11.0595 17.9905 8.99977C17.9905 8.80087 17.9115 8.61011 17.7709 8.46946C17.6302 8.32881 17.4395 8.24979 17.2406 8.24979Z" fill="black"/>
<path d="M8.99217 4.5C8.79326 4.5 8.6025 4.57902 8.46185 4.71966C8.3212 4.86031 8.24219 5.05107 8.24219 5.24998V8.99989C8.24223 9.19878 8.32127 9.38951 8.46193 9.53012L10.7119 11.7801C10.8533 11.9167 11.0428 11.9923 11.2394 11.9906C11.4361 11.9889 11.6242 11.91 11.7632 11.7709C11.9023 11.6319 11.9811 11.4438 11.9828 11.2471C11.9846 11.0505 11.909 10.861 11.7723 10.7196L9.74215 8.68939V5.24998C9.74215 5.05107 9.66313 4.86031 9.52249 4.71966C9.38184 4.57902 9.19108 4.5 8.99217 4.5Z" fill="black"/>
</g>
</svg>
