<svg width="189" height="189" viewBox="0 0 189 189" fill="none" xmlns="http://www.w3.org/2000/svg">
<circle opacity="0.5" cx="94.5" cy="94.5" r="94.5" fill="#F1F0FF"/>
<path opacity="0.6" d="M106.95 135.671C106.95 139.893 89.643 143.34 68.2912 143.34C46.9042 143.34 29.5977 139.893 29.5977 135.671C29.5977 131.45 46.9042 128.003 68.256 128.003C89.643 128.003 106.95 131.415 106.95 135.671Z" fill="#CCCCCC"/>
<path d="M132.983 110.169C132.983 110.169 126.229 75.9428 100.797 60.8171H82.6458C57.2136 75.9428 50.4598 110.169 50.4598 110.169C43.0377 149.988 89.2237 144.888 89.2237 144.888H94.2187C94.2187 144.923 140.405 149.988 132.983 110.169Z" fill="#E8C47B"/>
<path d="M132.979 110.169C132.979 110.169 126.225 75.9428 100.793 60.8171H90.6974C107.969 76.0131 112.823 100.566 112.823 100.566C119.612 136.938 77.4361 132.295 77.4361 132.295H72.8632C72.8632 132.295 61.8532 133.491 52.0039 129.832C60.4813 148.053 89.22 144.888 89.22 144.888H94.215C94.215 144.923 140.401 149.988 132.979 110.169Z" fill="#DAB873"/>
<path d="M64.2138 38.5499C63.2641 37.3187 61.7867 34.6454 63.4048 33.4142C65.5153 31.7961 69.6309 33.5197 71.7767 34.1177C74.5907 34.8916 77.6862 35.5951 80.7465 35.2785C83.7365 34.962 87.1837 33.3087 89.8571 32.2182C92.5656 31.1278 95.4149 29.1579 98.6159 30.1429C101.993 31.1981 103.329 34.1529 107.234 34.5047C114.093 35.173 118.139 29.0172 124.576 29.6504C127.917 30.0021 127.531 32.0775 125.666 33.5197L100.797 60.8163H82.646L64.2138 38.5499Z" fill="#E8C47B"/>
<path opacity="0.6" d="M114.751 155.231C106.379 155.231 99.625 152.628 99.625 149.427C99.625 146.226 106.414 143.623 114.751 143.623C123.123 143.623 129.876 146.226 129.876 149.427C129.876 152.628 123.087 155.231 114.751 155.231Z" fill="#CCCCCC"/>
<path opacity="0.6" d="M130.626 137.501C122.254 137.501 115.5 134.898 115.5 131.697C115.5 128.496 122.289 125.893 130.626 125.893C138.998 125.893 145.751 128.496 145.751 131.697C145.751 134.898 138.998 137.501 130.626 137.501Z" fill="#CCCCCC"/>
<path opacity="0.6" d="M128.787 148.969C120.45 148.687 113.591 151.044 113.45 154.28C113.345 157.481 120.028 160.331 128.365 160.612C136.702 160.893 143.561 158.537 143.667 155.3C143.807 152.099 137.124 149.25 128.787 148.969Z" fill="#CCCCCC"/>
<path opacity="0.6" d="M85.9714 139.365C94.3081 139.084 101.167 141.441 101.308 144.677C101.414 147.878 94.7303 150.727 86.3936 151.009C78.0569 151.29 71.1976 148.933 71.092 145.697C70.9513 142.461 77.6347 139.647 85.9714 139.365Z" fill="#CCCCCC"/>
<path d="M79.3242 141.06C79.3242 144.261 86.1132 146.864 94.4499 146.864C102.822 146.864 109.576 144.261 109.576 141.06V138.316H79.3242V141.06Z" fill="#FF931E"/>
<path d="M93.0547 139.723V146.864C93.512 146.864 94.0044 146.899 94.4969 146.899V139.723H93.0547Z" fill="#D17918"/>
<path d="M90.1328 139.723V146.618C90.9067 146.723 91.7157 146.758 92.56 146.829V139.723H90.1328Z" fill="#D17918"/>
<path d="M89.5372 146.582V138.316H79.3713V141.06C79.3361 143.627 83.5924 145.773 89.5372 146.582Z" fill="#D17918"/>
<path d="M99.875 139.723V146.512C100.051 146.477 100.192 146.477 100.367 146.442V139.758H99.875V139.723Z" fill="#D17918"/>
<path d="M97.9766 146.723C98.1524 146.723 98.2931 146.688 98.469 146.688V139.723H97.9766V146.723Z" fill="#D17918"/>
<path d="M95.5859 139.723V146.864C95.8322 146.864 96.0784 146.864 96.2895 146.829V139.723H95.5859Z" fill="#D17918"/>
<path d="M94.4499 144.157C86.078 144.157 79.3242 141.554 79.3242 138.353C79.3242 135.152 86.1132 132.549 94.4499 132.549C102.822 132.549 109.576 135.152 109.576 138.353C109.611 141.554 102.822 144.157 94.4499 144.157Z" fill="#FF931E"/>
<path opacity="0.4" d="M102.998 143.137C102.575 143.137 102.118 143.172 101.696 143.172C93.3242 143.172 86.5704 140.569 86.5704 137.368C86.5704 135.363 89.1735 133.604 93.1835 132.549C85.4448 132.795 79.3594 135.292 79.3594 138.353C79.3594 141.554 86.1483 144.157 94.485 144.157C97.6157 144.157 100.57 143.77 102.998 143.137Z" fill="url(#paint0_linear_2901_10883)"/>
<path d="M109.576 138.491C109.329 135.36 102.646 132.863 94.4499 132.863C86.2539 132.863 79.5705 135.36 79.3242 138.491C79.5705 141.622 86.2539 144.119 94.4499 144.119C102.681 144.154 109.329 141.622 109.576 138.491ZM94.4499 143.416C87.6609 143.416 82.1383 141.305 82.1383 138.667C82.1383 136.064 87.6609 133.918 94.4499 133.918C101.239 133.918 106.761 136.029 106.761 138.667C106.797 141.305 101.274 143.416 94.4499 143.416Z" fill="#D17918"/>
<path d="M93.0814 137.509L87.2422 139.197V140.358L93.2221 138.529C93.8201 139.022 94.6643 139.373 95.7548 139.62C95.8603 139.655 95.9306 139.655 96.0362 139.69V140.745H98.2171V139.936C98.6744 139.971 99.1317 139.971 99.5186 139.936V140.71H101.699V137.579H99.5186V139.092C99.1668 139.092 98.7095 139.092 98.2171 139.092V137.615H96.0362V138.67C95.5085 138.459 95.0864 138.177 94.7698 137.79L93.0814 137.509Z" fill="#D17918"/>
<path d="M106.797 138.317C106.797 140.92 101.274 143.066 94.485 143.066C87.6961 143.066 82.1734 140.956 82.1734 138.317C82.1734 135.679 87.6961 133.569 94.485 133.569C101.274 133.569 106.797 135.714 106.797 138.317ZM109.611 138.317C109.611 135.116 102.822 132.513 94.485 132.513C86.1132 132.513 79.3594 135.116 79.3594 138.317C79.3594 141.518 86.1483 144.121 94.485 144.121C102.822 144.157 109.611 141.554 109.611 138.317Z" fill="#FFC022"/>
<path d="M83.8008 138.317C83.8008 136.066 88.5847 134.202 94.4943 134.202C100.404 134.202 105.188 136.031 105.188 138.317C105.188 140.569 100.404 142.433 94.4943 142.433C88.5847 142.433 83.8008 140.604 83.8008 138.317ZM104.695 138.317C104.695 136.136 100.122 134.378 94.4591 134.378C88.8309 134.378 84.2229 136.136 84.2229 138.317C84.2229 140.498 88.7958 142.257 94.4591 142.257C100.122 142.257 104.695 140.498 104.695 138.317Z" fill="#FFC022"/>
<path d="M93.0814 136.734L87.2422 138.422V139.583L93.2221 137.719C93.8201 138.211 94.6643 138.563 95.7548 138.809C95.8603 138.844 95.9306 138.844 96.0362 138.879V139.935H98.2171V139.126C98.6744 139.161 99.1317 139.161 99.5186 139.126V139.9H101.699V136.769H99.5186V138.282C99.1668 138.282 98.7095 138.282 98.2171 138.282V136.804H96.0362V137.859C95.5085 137.648 95.0864 137.367 94.7698 136.98L93.0814 136.734Z" fill="#FFC022"/>
<path d="M79.3242 135.259C79.3242 138.46 86.1132 141.063 94.4499 141.063C102.822 141.063 109.576 138.46 109.576 135.259V132.516H79.3242V135.259Z" fill="#FF931E"/>
<path d="M93.0547 133.921V141.062C93.512 141.062 94.0044 141.097 94.4969 141.097V133.957H93.0547V133.921Z" fill="#D17918"/>
<path d="M90.1328 133.921V140.816C90.9067 140.921 91.7157 140.957 92.56 141.027V133.921H90.1328Z" fill="#D17918"/>
<path d="M89.5372 140.747V132.516H79.3713V135.259C79.3361 137.792 83.5924 139.973 89.5372 140.747Z" fill="#D17918"/>
<path d="M99.875 133.921V140.71C100.051 140.675 100.192 140.675 100.367 140.64V133.957H99.875V133.921Z" fill="#D17918"/>
<path d="M97.9844 140.921C98.1603 140.921 98.301 140.886 98.4768 140.886V133.921H97.9844V140.921Z" fill="#D17918"/>
<path d="M95.5859 133.921V141.062C95.8322 141.062 96.0784 141.062 96.2895 141.027V133.921H95.5859Z" fill="#D17918"/>
<path d="M94.4499 138.321C86.078 138.321 79.3242 135.718 79.3242 132.517C79.3242 129.316 86.1132 126.713 94.4499 126.713C102.822 126.713 109.576 129.316 109.576 132.517C109.611 135.718 102.822 138.321 94.4499 138.321Z" fill="#FF931E"/>
<path opacity="0.4" d="M102.998 137.301C102.575 137.301 102.118 137.336 101.696 137.336C93.3242 137.336 86.5704 134.733 86.5704 131.532C86.5704 129.527 89.1735 127.769 93.1835 126.713C85.4448 126.959 79.3594 129.457 79.3594 132.517C79.3594 135.718 86.1483 138.321 94.485 138.321C97.6157 138.321 100.57 137.97 102.998 137.301Z" fill="url(#paint1_linear_2901_10883)"/>
<path d="M109.576 132.692C109.329 129.561 102.646 127.063 94.4499 127.063C86.2539 127.063 79.5705 129.561 79.3242 132.692C79.5705 135.822 86.2539 138.32 94.4499 138.32C102.681 138.32 109.329 135.822 109.576 132.692ZM94.4499 137.616C87.6609 137.616 82.1383 135.506 82.1383 132.867C82.1383 130.264 87.6609 128.119 94.4499 128.119C101.239 128.119 106.761 130.229 106.761 132.867C106.797 135.47 101.274 137.616 94.4499 137.616Z" fill="#D17918"/>
<path d="M93.0814 131.709L87.2422 133.397V134.558L93.2221 132.729C93.8201 133.221 94.6643 133.573 95.7548 133.819C95.8603 133.854 95.9306 133.854 96.0362 133.854V134.91H98.2171V134.101C98.6744 134.136 99.1317 134.136 99.5186 134.101V134.875H101.699V131.744H99.5186V133.256C99.1668 133.256 98.7095 133.256 98.2171 133.221V131.744H96.0362V132.799C95.5085 132.588 95.0864 132.307 94.7698 131.92L93.0814 131.709Z" fill="#D17918"/>
<path d="M106.797 132.517C106.797 135.12 101.274 137.266 94.485 137.266C87.6961 137.266 82.1734 135.155 82.1734 132.517C82.1734 129.914 87.6961 127.769 94.485 127.769C101.274 127.769 106.797 129.879 106.797 132.517ZM109.611 132.517C109.611 129.316 102.822 126.713 94.485 126.713C86.1132 126.713 79.3594 129.316 79.3594 132.517C79.3594 135.718 86.1483 138.321 94.485 138.321C102.822 138.321 109.611 135.718 109.611 132.517Z" fill="#FFC022"/>
<path d="M83.8008 132.514C83.8008 130.263 88.5847 128.399 94.4943 128.399C100.404 128.399 105.188 130.228 105.188 132.514C105.188 134.765 100.404 136.63 94.4943 136.63C88.5847 136.63 83.8008 134.765 83.8008 132.514ZM104.695 132.514C104.695 130.333 100.122 128.574 94.4591 128.574C88.8309 128.574 84.2229 130.333 84.2229 132.514C84.2229 134.695 88.7958 136.454 94.4591 136.454C100.122 136.419 104.695 134.66 104.695 132.514Z" fill="#FFC022"/>
<path d="M93.0814 130.934L87.2422 132.622V133.783L93.2221 131.919C93.8201 132.411 94.6643 132.763 95.7548 133.009C95.8603 133.044 95.9306 133.044 96.0362 133.079V134.135H98.2171V133.326C98.6744 133.361 99.1317 133.361 99.5186 133.326V134.099H101.699V130.969H99.5186V132.481C99.1668 132.481 98.7095 132.481 98.2171 132.446V130.969H96.0362V132.024C95.5085 131.813 95.0864 131.532 94.7698 131.145L93.0814 130.934Z" fill="#FFC022"/>
<path d="M79.3242 129.412C79.3242 132.613 86.1132 135.216 94.4499 135.216C102.822 135.216 109.576 132.613 109.576 129.412V126.668H79.3242V129.412Z" fill="#FF931E"/>
<path d="M93.0547 128.077V135.218C93.512 135.218 94.0044 135.253 94.4969 135.253V128.113H93.0547V128.077Z" fill="#D17918"/>
<path d="M90.1328 128.077V134.972C90.9067 135.077 91.7157 135.113 92.56 135.183V128.077H90.1328Z" fill="#D17918"/>
<path d="M89.5372 134.936V126.705H79.3713V129.449C79.3361 131.982 83.5924 134.127 89.5372 134.936Z" fill="#D17918"/>
<path d="M99.875 128.077V134.866C100.051 134.831 100.192 134.831 100.367 134.796V128.113H99.875V128.077Z" fill="#D17918"/>
<path d="M97.9766 135.077C98.1524 135.077 98.2931 135.042 98.469 135.042V128.077H97.9766V135.077Z" fill="#D17918"/>
<path d="M95.5859 128.077V135.218C95.8322 135.218 96.0784 135.218 96.2895 135.183V128.077H95.5859Z" fill="#D17918"/>
<path d="M94.4499 132.507C86.078 132.507 79.3242 129.904 79.3242 126.703C79.3242 123.502 86.1132 120.899 94.4499 120.899C102.822 120.899 109.576 123.502 109.576 126.703C109.611 129.904 102.822 132.507 94.4499 132.507Z" fill="#FF931E"/>
<path opacity="0.4" d="M102.998 131.487C102.575 131.487 102.118 131.522 101.696 131.522C93.3242 131.522 86.5704 128.919 86.5704 125.718C86.5704 123.713 89.1735 121.954 93.1835 120.899C85.4448 121.145 79.3594 123.642 79.3594 126.703C79.3594 129.904 86.1483 132.507 94.485 132.507C97.6157 132.507 100.57 132.12 102.998 131.487Z" fill="url(#paint2_linear_2901_10883)"/>
<path d="M109.576 126.843C109.329 123.713 102.646 121.215 94.4499 121.215C86.2539 121.215 79.5705 123.713 79.3242 126.843C79.5705 129.974 86.2539 132.472 94.4499 132.472C102.681 132.507 109.329 129.974 109.576 126.843ZM94.4499 131.768C87.6609 131.768 82.1383 129.658 82.1383 127.019C82.1383 124.381 87.6609 122.271 94.4499 122.271C101.239 122.271 106.761 124.381 106.761 127.019C106.761 129.658 101.274 131.768 94.4499 131.768Z" fill="#D17918"/>
<path d="M93.0814 125.858L87.2422 127.547V128.708L93.2221 126.878C93.8201 127.371 94.6643 127.723 95.7548 127.969C95.8603 128.004 95.9306 128.004 96.0362 128.004V129.059H98.2171V128.25C98.6744 128.286 99.1317 128.286 99.5186 128.25V129.024H101.699V125.894H99.5186V127.406C99.1668 127.406 98.7095 127.406 98.2171 127.406V125.929H96.0362V126.984C95.5085 126.773 95.0864 126.492 94.7698 126.105L93.0814 125.858Z" fill="#D17918"/>
<path d="M106.797 126.668C106.797 129.271 101.274 131.416 94.485 131.416C87.6961 131.416 82.1734 129.306 82.1734 126.668C82.1734 124.065 87.6961 121.919 94.485 121.919C101.274 121.954 106.797 124.065 106.797 126.668ZM109.611 126.668C109.611 123.467 102.822 120.864 94.485 120.864C86.1132 120.864 79.3594 123.467 79.3594 126.668C79.3594 129.869 86.1483 132.472 94.485 132.472C102.822 132.507 109.611 129.904 109.611 126.668Z" fill="#FFC022"/>
<path d="M83.8008 126.668C83.8008 124.417 88.5847 122.552 94.4943 122.552C100.404 122.552 105.188 124.382 105.188 126.668C105.188 128.919 100.404 130.784 94.4943 130.784C88.5847 130.784 83.8008 128.954 83.8008 126.668ZM104.695 126.668C104.695 124.487 100.122 122.728 94.4591 122.728C88.8309 122.728 84.2229 124.487 84.2229 126.668C84.2229 128.849 88.7958 130.608 94.4591 130.608C100.122 130.608 104.695 128.849 104.695 126.668Z" fill="#FFC022"/>
<path d="M93.0814 125.085L87.2422 126.774V127.934L93.2221 126.07C93.8201 126.562 94.6643 126.914 95.7548 127.16C95.8603 127.196 95.9306 127.196 96.0362 127.231V128.286H98.2171V127.477C98.6744 127.512 99.1317 127.512 99.5186 127.477V128.251H101.699V125.12H99.5186V126.633C99.1668 126.633 98.7095 126.633 98.2171 126.598V125.12H96.0362V126.176C95.5085 125.964 95.0864 125.683 94.7698 125.296L93.0814 125.085Z" fill="#FFC022"/>
<path d="M116.559 129.903C116.559 133.104 123.348 135.707 131.684 135.707C140.056 135.707 146.81 133.104 146.81 129.903V127.159H116.559V129.903Z" fill="#FF931E"/>
<path d="M130.289 128.567V135.707C130.746 135.707 131.239 135.743 131.731 135.743V128.602H130.289V128.567Z" fill="#D17918"/>
<path d="M127.367 128.567V135.461C128.141 135.567 128.95 135.602 129.794 135.672V128.567H127.367Z" fill="#D17918"/>
<path d="M126.772 135.391V127.159H116.606V129.903C116.571 132.436 120.827 134.582 126.772 135.391Z" fill="#D17918"/>
<path d="M137.109 128.567V135.356C137.285 135.321 137.426 135.321 137.602 135.285V128.602H137.109V128.567Z" fill="#D17918"/>
<path d="M135.211 135.567C135.387 135.567 135.528 135.532 135.703 135.532V128.567H135.211V135.567Z" fill="#D17918"/>
<path d="M132.82 128.567V135.707C133.067 135.707 133.313 135.707 133.524 135.672V128.567H132.82Z" fill="#D17918"/>
<path d="M131.719 132.962C123.348 132.962 116.594 130.359 116.594 127.158C116.594 123.957 123.383 121.354 131.719 121.354C140.091 121.354 146.845 123.957 146.845 127.158C146.845 130.359 140.056 132.962 131.719 132.962Z" fill="#FF931E"/>
<path opacity="0.4" d="M140.232 131.942C139.81 131.942 139.353 131.977 138.93 131.977C130.559 131.977 123.805 129.374 123.805 126.173C123.805 124.168 126.408 122.409 130.418 121.354C122.679 121.6 116.594 124.098 116.594 127.158C116.594 130.359 123.383 132.962 131.719 132.962C134.885 132.962 137.805 132.575 140.232 131.942Z" fill="url(#paint3_linear_2901_10883)"/>
<path d="M146.81 127.334C146.564 124.203 139.88 121.706 131.684 121.706C123.488 121.706 116.805 124.203 116.559 127.334C116.805 130.465 123.488 132.962 131.684 132.962C139.915 132.962 146.564 130.465 146.81 127.334ZM131.719 132.223C124.93 132.223 119.408 130.113 119.408 127.475C119.408 124.872 124.93 122.726 131.719 122.726C138.508 122.726 144.031 124.836 144.031 127.475C144.031 130.113 138.508 132.223 131.719 132.223Z" fill="#D17918"/>
<path d="M130.351 126.349L124.512 128.038V129.199L130.492 127.37C131.09 127.862 131.934 128.214 133.024 128.46C133.13 128.495 133.2 128.495 133.306 128.53V129.586H135.487V128.777C135.944 128.812 136.401 128.812 136.788 128.777V129.55H138.969V126.42H136.788V127.932C136.436 127.932 135.979 127.932 135.487 127.932V126.455H133.306V127.51C132.778 127.299 132.356 127.018 132.039 126.631L130.351 126.349Z" fill="#D17918"/>
<path d="M144.031 127.123C144.031 129.726 138.508 131.872 131.719 131.872C124.93 131.872 119.408 129.762 119.408 127.123C119.408 124.485 124.93 122.375 131.719 122.375C138.508 122.41 144.031 124.52 144.031 127.123ZM146.845 127.123C146.845 123.922 140.056 121.319 131.719 121.319C123.348 121.319 116.594 123.922 116.594 127.123C116.594 130.324 123.383 132.927 131.719 132.927C140.056 132.963 146.845 130.36 146.845 127.123Z" fill="#FFC022"/>
<path d="M121.023 127.124C121.023 124.873 125.807 123.009 131.717 123.009C137.626 123.009 142.41 124.838 142.41 127.124C142.41 129.411 137.626 131.24 131.717 131.24C125.807 131.24 121.023 129.411 121.023 127.124ZM141.918 127.124C141.918 124.943 137.345 123.185 131.682 123.185C126.054 123.185 121.446 124.943 121.446 127.124C121.446 129.305 126.018 131.064 131.682 131.064C137.345 131.064 141.918 129.305 141.918 127.124Z" fill="#FFC022"/>
<path d="M130.351 125.541L124.512 127.23V128.391L130.492 126.526C131.09 127.019 131.934 127.371 133.024 127.617C133.13 127.652 133.2 127.652 133.306 127.687V128.742H135.487V127.933C135.944 127.969 136.401 127.969 136.788 127.933V128.707H138.969V125.577H136.788V127.089C136.436 127.089 135.979 127.089 135.487 127.089V125.612H133.306V126.667C132.778 126.456 132.356 126.175 132.039 125.788L130.351 125.541Z" fill="#FFC022"/>
<path d="M116.582 124.057C116.582 127.258 123.371 129.861 131.708 129.861C140.08 129.861 146.833 127.258 146.833 124.057V121.313H116.582V124.057Z" fill="#FF931E"/>
<path d="M130.301 122.721V129.862C130.758 129.862 131.251 129.897 131.743 129.897V122.756H130.301V122.721Z" fill="#D17918"/>
<path d="M127.387 122.721V129.616C128.161 129.721 128.97 129.756 129.814 129.827V122.721H127.387Z" fill="#D17918"/>
<path d="M126.783 129.545V121.314H116.617V124.058C116.582 126.625 120.839 128.771 126.783 129.545Z" fill="#D17918"/>
<path d="M137.125 122.721V129.51C137.301 129.475 137.442 129.475 137.617 129.44V122.756H137.125V122.721Z" fill="#D17918"/>
<path d="M135.23 129.721C135.406 129.721 135.547 129.686 135.723 129.686V122.721H135.23V129.721Z" fill="#D17918"/>
<path d="M132.832 122.721V129.862C133.078 129.862 133.324 129.862 133.536 129.827V122.721H132.832Z" fill="#D17918"/>
<path d="M131.743 127.117C123.371 127.117 116.617 124.514 116.617 121.313C116.617 118.112 123.406 115.509 131.743 115.509C140.115 115.509 146.868 118.112 146.868 121.313C146.868 124.514 140.08 127.117 131.743 127.117Z" fill="#FF931E"/>
<path opacity="0.4" d="M140.255 126.132C139.833 126.132 139.376 126.168 138.954 126.168C130.582 126.168 123.828 123.565 123.828 120.364C123.828 118.359 126.431 116.6 130.441 115.544C122.703 115.791 116.617 118.288 116.617 121.348C116.617 124.549 123.406 127.152 131.743 127.152C134.909 127.117 137.828 126.766 140.255 126.132Z" fill="url(#paint4_linear_2901_10883)"/>
<path d="M146.833 121.489C146.587 118.358 139.904 115.861 131.708 115.861C123.512 115.861 116.828 118.358 116.582 121.489C116.828 124.62 123.512 127.117 131.708 127.117C139.939 127.117 146.587 124.62 146.833 121.489ZM131.743 126.414C124.954 126.414 119.431 124.303 119.431 121.665C119.431 119.062 124.954 116.916 131.743 116.916C138.532 116.916 144.054 119.027 144.054 121.665C144.054 124.303 138.532 126.414 131.743 126.414Z" fill="#D17918"/>
<path d="M130.374 120.505L124.535 122.193V123.354L130.515 121.525C131.113 122.017 131.957 122.369 133.048 122.615C133.153 122.65 133.224 122.65 133.329 122.65V123.706H135.51V122.897C135.967 122.932 136.425 122.932 136.812 122.897V123.671H138.992V120.54H136.812V122.052C136.46 122.052 136.003 122.053 135.51 122.017V120.54H133.329V121.595C132.802 121.384 132.379 121.103 132.063 120.716L130.374 120.505Z" fill="#D17918"/>
<path d="M144.054 121.313C144.054 123.916 138.532 126.062 131.743 126.062C124.954 126.062 119.431 123.951 119.431 121.313C119.431 118.71 124.954 116.564 131.743 116.564C138.532 116.564 144.054 118.71 144.054 121.313ZM146.868 121.313C146.868 118.112 140.08 115.509 131.743 115.509C123.371 115.509 116.617 118.112 116.617 121.313C116.617 124.514 123.406 127.117 131.743 127.117C140.08 127.117 146.868 124.514 146.868 121.313Z" fill="#FFC022"/>
<path d="M121.059 121.315C121.059 119.063 125.843 117.199 131.752 117.199C137.662 117.199 142.446 119.028 142.446 121.315C142.446 123.566 137.662 125.43 131.752 125.43C125.843 125.43 121.059 123.566 121.059 121.315ZM141.953 121.315C141.953 119.134 137.38 117.375 131.717 117.375C126.089 117.375 121.481 119.134 121.481 121.315C121.481 123.496 126.054 125.254 131.717 125.254C137.38 125.254 141.953 123.496 141.953 121.315Z" fill="#FFC022"/>
<path d="M130.374 119.731L124.535 121.42V122.58L130.515 120.716C131.113 121.209 131.957 121.56 133.048 121.807C133.153 121.842 133.224 121.842 133.329 121.877V122.932H135.51V122.123C135.967 122.158 136.425 122.158 136.812 122.123V122.897H138.992V119.766H136.812V121.279C136.46 121.279 136.003 121.279 135.51 121.244V119.766H133.329V120.822C132.802 120.611 132.379 120.329 132.063 119.942L130.374 119.731Z" fill="#FFC022"/>
<path d="M116.559 118.262C116.559 121.463 123.348 124.066 131.684 124.066C140.056 124.066 146.81 121.463 146.81 118.262V115.518H116.559V118.262Z" fill="#FF931E"/>
<path d="M130.289 116.924V124.064C130.746 124.064 131.239 124.099 131.731 124.099V116.959H130.289V116.924Z" fill="#D17918"/>
<path d="M127.367 116.924V123.818C128.141 123.924 128.95 123.959 129.794 124.029V116.924H127.367Z" fill="#D17918"/>
<path d="M126.772 123.748V115.517H116.606V118.26C116.571 120.793 120.827 122.974 126.772 123.748Z" fill="#D17918"/>
<path d="M137.109 116.924V123.713C137.285 123.677 137.426 123.677 137.602 123.642V116.959H137.109V116.924Z" fill="#D17918"/>
<path d="M135.211 123.924C135.387 123.924 135.528 123.888 135.703 123.888V116.924H135.211V123.924Z" fill="#D17918"/>
<path d="M132.82 116.924V124.064C133.067 124.064 133.313 124.064 133.524 124.029V116.924H132.82Z" fill="#D17918"/>
<path d="M131.719 121.321C123.348 121.321 116.594 118.718 116.594 115.517C116.594 112.316 123.383 109.713 131.719 109.713C140.091 109.713 146.845 112.316 146.845 115.517C146.845 118.718 140.056 121.321 131.719 121.321Z" fill="#FF931E"/>
<path opacity="0.4" d="M140.232 120.301C139.81 120.301 139.353 120.336 138.93 120.336C130.559 120.336 123.805 117.733 123.805 114.532C123.805 112.527 126.408 110.768 130.418 109.713C122.679 109.959 116.594 112.456 116.594 115.517C116.594 118.718 123.383 121.321 131.719 121.321C134.885 121.321 137.805 120.934 140.232 120.301Z" fill="url(#paint5_linear_2901_10883)"/>
<path d="M146.81 115.693C146.564 112.562 139.88 110.065 131.684 110.065C123.488 110.065 116.805 112.562 116.559 115.693C116.805 118.823 123.488 121.321 131.684 121.321C139.915 121.321 146.564 118.823 146.81 115.693ZM131.719 120.617C124.93 120.617 119.408 118.507 119.408 115.869C119.408 113.266 124.93 111.12 131.719 111.12C138.508 111.12 144.031 113.23 144.031 115.869C144.031 118.472 138.508 120.617 131.719 120.617Z" fill="#D17918"/>
<path d="M130.351 114.708L124.512 116.396V117.557L130.492 115.728C131.09 116.22 131.934 116.572 133.024 116.818C133.13 116.853 133.2 116.853 133.306 116.853V117.909H135.487V117.099C135.944 117.135 136.401 117.135 136.788 117.099V117.873H138.969V114.743H136.788V116.255C136.436 116.255 135.979 116.255 135.487 116.255V114.743H133.306V115.798C132.778 115.587 132.356 115.306 132.039 114.919L130.351 114.708Z" fill="#D17918"/>
<path d="M144.031 115.517C144.031 118.12 138.508 120.265 131.719 120.265C124.93 120.265 119.408 118.155 119.408 115.517C119.408 112.914 124.93 110.768 131.719 110.768C138.508 110.768 144.031 112.878 144.031 115.517ZM146.845 115.517C146.845 112.316 140.056 109.713 131.719 109.713C123.348 109.713 116.594 112.316 116.594 115.517C116.594 118.718 123.383 121.321 131.719 121.321C140.056 121.321 146.845 118.718 146.845 115.517Z" fill="#FFC022"/>
<path d="M121.023 115.516C121.023 113.265 125.807 111.401 131.717 111.401C137.626 111.401 142.41 113.23 142.41 115.516C142.41 117.768 137.626 119.632 131.717 119.632C125.807 119.597 121.023 117.768 121.023 115.516ZM141.918 115.516C141.918 113.336 137.345 111.577 131.682 111.577C126.054 111.577 121.446 113.336 121.446 115.516C121.446 117.697 126.018 119.456 131.682 119.456C137.345 119.421 141.918 117.662 141.918 115.516Z" fill="#FFC022"/>
<path d="M130.351 113.898L124.512 115.586V116.747L130.492 114.883C131.09 115.375 131.934 115.727 133.024 115.973C133.13 116.008 133.2 116.008 133.306 116.043V117.099H135.487V116.29C135.944 116.325 136.401 116.325 136.788 116.29V117.064H138.969V113.933H136.788V115.445C136.436 115.445 135.979 115.445 135.487 115.41V113.933H133.306V114.988C132.778 114.777 132.356 114.496 132.039 114.109L130.351 113.898Z" fill="#FFC022"/>
<path d="M116.582 112.419C116.582 115.621 123.371 118.224 131.708 118.224C140.08 118.224 146.833 115.621 146.833 112.419V109.676H116.582V112.419Z" fill="#FF931E"/>
<path d="M130.301 111.082V118.222C130.758 118.222 131.251 118.258 131.743 118.258V111.117H130.301V111.082Z" fill="#D17918"/>
<path d="M127.387 111.082V117.976C128.161 118.082 128.97 118.117 129.814 118.187V111.082H127.387Z" fill="#D17918"/>
<path d="M126.783 117.94V109.709H116.617V112.453C116.582 114.985 120.839 117.131 126.783 117.94Z" fill="#D17918"/>
<path d="M137.125 111.082V117.871C137.301 117.836 137.442 117.836 137.617 117.8V111.117H137.125V111.082Z" fill="#D17918"/>
<path d="M135.23 118.082C135.406 118.082 135.547 118.047 135.723 118.047V111.082H135.23V118.082Z" fill="#D17918"/>
<path d="M132.832 111.082V118.222C133.078 118.222 133.324 118.223 133.536 118.187V111.082H132.832Z" fill="#D17918"/>
<path d="M131.743 115.511C123.371 115.511 116.617 112.908 116.617 109.707C116.617 106.506 123.406 103.903 131.743 103.903C140.115 103.903 146.868 106.506 146.868 109.707C146.868 112.908 140.08 115.511 131.743 115.511Z" fill="#FF931E"/>
<path opacity="0.4" d="M140.255 114.491C139.833 114.491 139.376 114.526 138.954 114.526C130.582 114.526 123.828 111.923 123.828 108.722C123.828 106.717 126.431 104.959 130.441 103.903C122.703 104.15 116.617 106.647 116.617 109.707C116.617 112.908 123.406 115.511 131.743 115.511C134.909 115.511 137.828 115.124 140.255 114.491Z" fill="url(#paint6_linear_2901_10883)"/>
<path d="M146.833 109.848C146.587 106.717 139.904 104.219 131.708 104.219C123.512 104.219 116.828 106.717 116.582 109.848C116.828 112.978 123.512 115.476 131.708 115.476C139.939 115.511 146.587 112.978 146.833 109.848ZM131.743 114.772C124.954 114.772 119.431 112.662 119.431 110.023C119.431 107.42 124.954 105.275 131.743 105.275C138.532 105.275 144.054 107.385 144.054 110.023C144.054 112.662 138.532 114.772 131.743 114.772Z" fill="#D17918"/>
<path d="M130.374 108.864L124.535 110.553V111.714L130.515 109.884C131.113 110.377 131.957 110.729 133.048 110.975C133.153 111.01 133.224 111.01 133.329 111.045V112.1H135.51V111.291C135.967 111.327 136.425 111.327 136.812 111.291V112.065H138.992V108.935H136.812V110.447C136.46 110.447 136.003 110.447 135.51 110.447V108.97H133.329V110.025C132.802 109.814 132.379 109.533 132.063 109.146L130.374 108.864Z" fill="#D17918"/>
<path d="M144.054 109.673C144.054 112.276 138.532 114.422 131.743 114.422C124.954 114.422 119.431 112.311 119.431 109.673C119.431 107.07 124.954 104.925 131.743 104.925C138.532 104.96 144.054 107.07 144.054 109.673ZM146.868 109.673C146.868 106.472 140.08 103.869 131.743 103.869C123.371 103.869 116.617 106.472 116.617 109.673C116.617 112.874 123.406 115.477 131.743 115.477C140.08 115.512 146.868 112.909 146.868 109.673Z" fill="#FFC022"/>
<path d="M121.047 109.672C121.047 107.421 125.831 105.557 131.74 105.557C137.65 105.557 142.434 107.386 142.434 109.672C142.434 111.924 137.65 113.788 131.74 113.788C125.831 113.788 121.047 111.959 121.047 109.672ZM141.941 109.672C141.941 107.492 137.369 105.733 131.705 105.733C126.077 105.733 121.469 107.492 121.469 109.672C121.469 111.853 126.042 113.612 131.705 113.612C137.369 113.612 141.941 111.853 141.941 109.672Z" fill="#FFC022"/>
<path d="M130.374 108.089L124.535 109.777V110.938L130.515 109.074C131.113 109.566 131.957 109.918 133.048 110.164C133.153 110.2 133.224 110.2 133.329 110.235V111.29H135.51V110.481C135.967 110.516 136.425 110.516 136.812 110.481V111.255H138.992V108.124H136.812V109.637C136.46 109.637 136.003 109.637 135.51 109.637V108.159H133.329V109.215C132.802 109.004 132.379 108.722 132.063 108.335L130.374 108.089Z" fill="#FFC022"/>
<path d="M116.559 106.616C116.559 109.817 123.348 112.42 131.684 112.42C140.056 112.42 146.81 109.817 146.81 106.616V103.873H116.559V106.616Z" fill="#FF931E"/>
<path d="M130.281 105.279V112.42C130.739 112.42 131.231 112.455 131.723 112.455V105.315H130.281V105.279Z" fill="#D17918"/>
<path d="M127.355 105.279V112.174C128.129 112.279 128.938 112.315 129.783 112.385V105.279H127.355Z" fill="#D17918"/>
<path d="M126.76 112.105V103.874H116.594V106.617C116.559 109.15 120.815 111.331 126.76 112.105Z" fill="#D17918"/>
<path d="M137.098 105.279V112.068C137.274 112.033 137.414 112.033 137.59 111.998V105.315H137.098V105.279Z" fill="#D17918"/>
<path d="M135.207 112.279C135.383 112.279 135.524 112.244 135.7 112.244V105.279H135.207V112.279Z" fill="#D17918"/>
<path d="M132.809 105.279V112.42C133.055 112.42 133.301 112.42 133.512 112.385V105.279H132.809Z" fill="#D17918"/>
<path d="M131.719 109.678C123.348 109.678 116.594 107.075 116.594 103.874C116.594 100.673 123.383 98.0697 131.719 98.0697C140.091 98.0697 146.845 100.673 146.845 103.874C146.845 107.075 140.056 109.678 131.719 109.678Z" fill="#FF931E"/>
<path opacity="0.4" d="M140.232 108.658C139.81 108.658 139.353 108.693 138.93 108.693C130.559 108.693 123.805 106.09 123.805 102.889C123.805 100.884 126.408 99.125 130.418 98.0697C122.679 98.3159 116.594 100.813 116.594 103.874C116.594 107.075 123.383 109.678 131.719 109.678C134.885 109.678 137.805 109.326 140.232 108.658Z" fill="url(#paint7_linear_2901_10883)"/>
<path d="M146.81 104.05C146.564 100.92 139.88 98.4221 131.684 98.4221C123.488 98.4221 116.805 100.92 116.559 104.05C116.805 107.181 123.488 109.678 131.684 109.678C139.915 109.678 146.564 107.181 146.81 104.05ZM131.719 108.975C124.93 108.975 119.408 106.864 119.408 104.226C119.408 101.623 124.93 99.4774 131.719 99.4774C138.508 99.4774 144.031 101.588 144.031 104.226C144.031 106.829 138.508 108.975 131.719 108.975Z" fill="#D17918"/>
<path d="M130.351 103.065L124.512 104.754V105.914L130.492 104.085C131.09 104.578 131.934 104.93 133.024 105.176C133.13 105.211 133.2 105.211 133.306 105.211V106.266H135.487V105.457C135.944 105.492 136.401 105.492 136.788 105.457V106.231H138.969V103.1H136.788V104.613C136.436 104.613 135.979 104.613 135.487 104.578V103.1H133.306V104.156C132.778 103.945 132.356 103.663 132.039 103.276L130.351 103.065Z" fill="#D17918"/>
<path d="M144.031 103.874C144.031 106.477 138.508 108.622 131.719 108.622C124.93 108.622 119.408 106.512 119.408 103.874C119.408 101.271 124.93 99.125 131.719 99.125C138.508 99.125 144.031 101.236 144.031 103.874ZM146.845 103.874C146.845 100.673 140.056 98.0697 131.719 98.0697C123.348 98.0697 116.594 100.673 116.594 103.874C116.594 107.075 123.383 109.678 131.719 109.678C140.056 109.678 146.845 107.075 146.845 103.874Z" fill="#FFC022"/>
<path d="M121.023 103.873C121.023 101.622 125.807 99.7578 131.717 99.7578C137.626 99.7578 142.41 101.587 142.41 103.873C142.41 106.125 137.626 107.989 131.717 107.989C125.807 107.989 121.023 106.125 121.023 103.873ZM141.918 103.873C141.918 101.692 137.345 99.9337 131.682 99.9337C126.054 99.9337 121.446 101.692 121.446 103.873C121.446 106.054 126.018 107.813 131.682 107.813C137.345 107.778 141.918 106.019 141.918 103.873Z" fill="#FFC022"/>
<path d="M130.351 102.292L124.512 103.98V105.141L130.492 103.277C131.09 103.769 131.934 104.121 133.024 104.367C133.13 104.402 133.2 104.402 133.306 104.437V105.493H135.487V104.684C135.944 104.719 136.401 104.719 136.788 104.684V105.458H138.969V102.327H136.788V103.839C136.436 103.839 135.979 103.839 135.487 103.839V102.362H133.306V103.417C132.778 103.206 132.356 102.925 132.039 102.538L130.351 102.292Z" fill="#FFC022"/>
<path d="M102.926 147.496C102.926 150.697 109.715 153.3 118.051 153.3C126.423 153.3 133.177 150.697 133.177 147.496V144.753H102.926V147.496Z" fill="#FF931E"/>
<path d="M116.602 146.159V153.3C117.059 153.3 117.551 153.335 118.044 153.335V146.194H116.602V146.159Z" fill="#D17918"/>
<path d="M113.688 146.159V153.053C114.461 153.159 115.27 153.194 116.115 153.264V146.159H113.688Z" fill="#D17918"/>
<path d="M113.092 152.983V144.752H102.926V147.496C102.926 150.029 107.182 152.174 113.092 152.983Z" fill="#D17918"/>
<path d="M123.43 146.159V152.948C123.606 152.913 123.746 152.913 123.922 152.878V146.194H123.43V146.159Z" fill="#D17918"/>
<path d="M121.566 153.124C121.742 153.124 121.883 153.089 122.059 153.089V146.124H121.566V153.124Z" fill="#D17918"/>
<path d="M119.18 146.159V153.3C119.426 153.3 119.672 153.3 119.883 153.264V146.159H119.18Z" fill="#D17918"/>
<path d="M118.051 150.559C109.68 150.559 102.926 147.956 102.926 144.755C102.926 141.554 109.715 138.951 118.051 138.951C126.423 138.951 133.177 141.554 133.177 144.755C133.177 147.956 126.388 150.559 118.051 150.559Z" fill="#FF931E"/>
<path opacity="0.4" d="M126.564 149.539C126.142 149.539 125.685 149.574 125.262 149.574C116.891 149.574 110.137 146.971 110.137 143.77C110.137 141.765 112.74 140.006 116.75 138.951C109.011 139.197 102.926 141.695 102.926 144.755C102.926 147.956 109.715 150.559 118.051 150.559C121.217 150.559 124.137 150.172 126.564 149.539Z" fill="url(#paint8_linear_2901_10883)"/>
<path d="M133.177 144.93C132.931 141.8 126.247 139.302 118.051 139.302C109.855 139.302 103.172 141.8 102.926 144.93C103.172 148.061 109.855 150.558 118.051 150.558C126.247 150.558 132.931 148.061 133.177 144.93ZM118.051 149.82C111.262 149.82 105.74 147.709 105.74 145.071C105.74 142.468 111.262 140.322 118.051 140.322C124.84 140.322 130.363 142.433 130.363 145.071C130.363 147.709 124.84 149.82 118.051 149.82Z" fill="#D17918"/>
<path d="M116.675 143.911L110.836 145.6V146.761L116.816 144.931C117.414 145.424 118.258 145.776 119.349 146.022C119.454 146.057 119.524 146.057 119.63 146.092V147.147H121.811V146.338C122.268 146.374 122.725 146.374 123.112 146.338V147.112H125.293V143.982H123.112V145.494C122.761 145.494 122.303 145.494 121.811 145.494V144.017H119.63V145.072C119.102 144.861 118.68 144.58 118.364 144.193L116.675 143.911Z" fill="#D17918"/>
<path d="M130.363 144.721C130.363 147.324 124.84 149.47 118.051 149.47C111.262 149.47 105.74 147.359 105.74 144.721C105.74 142.083 111.262 139.972 118.051 139.972C124.84 140.007 130.363 142.118 130.363 144.721ZM133.177 144.721C133.177 141.52 126.388 138.917 118.051 138.917C109.68 138.917 102.926 141.52 102.926 144.721C102.926 147.922 109.715 150.525 118.051 150.525C126.388 150.56 133.177 147.957 133.177 144.721Z" fill="#FFC022"/>
<path d="M107.355 144.721C107.355 142.469 112.139 140.605 118.049 140.605C123.959 140.605 128.742 142.434 128.742 144.721C128.742 146.972 123.959 148.836 118.049 148.836C112.139 148.836 107.355 147.007 107.355 144.721ZM128.25 144.721C128.25 142.54 123.677 140.781 118.014 140.781C112.386 140.781 107.778 142.54 107.778 144.721C107.778 146.902 112.35 148.66 118.014 148.66C123.677 148.66 128.25 146.902 128.25 144.721Z" fill="#FFC022"/>
<path d="M116.675 143.138L110.836 144.826V145.987L116.816 144.123C117.414 144.615 118.258 144.967 119.349 145.213C119.454 145.248 119.524 145.248 119.63 145.283V146.339H121.811V145.53C122.268 145.565 122.725 145.565 123.112 145.53V146.304H125.293V143.173H123.112V144.685C122.761 144.685 122.303 144.685 121.811 144.685V143.208H119.63V144.263C119.102 144.052 118.68 143.771 118.364 143.384L116.675 143.138Z" fill="#FFC022"/>
<path d="M102.949 141.661C102.949 144.862 109.738 147.465 118.075 147.465C126.447 147.465 133.201 144.862 133.201 141.661V138.917H102.949V141.661Z" fill="#FF931E"/>
<path d="M116.633 140.325V147.466C117.09 147.466 117.583 147.501 118.075 147.501V140.36H116.633V140.325Z" fill="#D17918"/>
<path d="M113.719 140.325V147.22C114.493 147.325 115.302 147.36 116.146 147.431V140.325H113.719Z" fill="#D17918"/>
<path d="M113.115 147.15V138.919H102.949V141.662C102.949 144.195 107.206 146.376 113.115 147.15Z" fill="#D17918"/>
<path d="M123.457 140.325V147.114C123.633 147.079 123.774 147.079 123.95 147.044V140.36H123.457V140.325Z" fill="#D17918"/>
<path d="M121.59 147.325C121.766 147.325 121.906 147.29 122.082 147.29V140.325H121.59V147.325Z" fill="#D17918"/>
<path d="M119.203 140.325V147.466C119.449 147.466 119.696 147.466 119.907 147.431V140.325H119.203Z" fill="#D17918"/>
<path d="M118.075 144.724C109.703 144.724 102.949 142.121 102.949 138.92C102.949 135.719 109.738 133.116 118.075 133.116C126.447 133.116 133.201 135.719 133.201 138.92C133.201 142.121 126.412 144.724 118.075 144.724Z" fill="#FF931E"/>
<path opacity="0.4" d="M126.587 143.739C126.165 143.739 125.708 143.774 125.286 143.774C116.914 143.774 110.16 141.171 110.16 137.97C110.16 135.965 112.763 134.206 116.773 133.151C109.035 133.397 102.949 135.894 102.949 138.955C102.949 142.156 109.738 144.759 118.075 144.759C121.241 144.724 124.16 144.372 126.587 143.739Z" fill="url(#paint9_linear_2901_10883)"/>
<path d="M133.201 139.096C132.954 135.965 126.271 133.467 118.075 133.467C109.879 133.467 103.195 135.965 102.949 139.096C103.195 142.226 109.879 144.724 118.075 144.724C126.271 144.724 132.954 142.226 133.201 139.096ZM118.075 144.02C111.286 144.02 105.763 141.91 105.763 139.271C105.763 136.668 111.286 134.523 118.075 134.523C124.864 134.523 130.386 136.633 130.386 139.271C130.386 141.874 124.864 144.02 118.075 144.02Z" fill="#D17918"/>
<path d="M116.706 138.111L110.867 139.799V140.96L116.847 139.131C117.445 139.623 118.289 139.975 119.38 140.221C119.485 140.256 119.556 140.256 119.661 140.256V141.312H121.842V140.503C122.299 140.538 122.757 140.538 123.144 140.503V141.276H125.324V138.146H123.144V139.658C122.792 139.658 122.335 139.658 121.842 139.623V138.146H119.661V139.201C119.134 138.99 118.711 138.709 118.395 138.322L116.706 138.111Z" fill="#D17918"/>
<path d="M130.386 138.92C130.386 141.523 124.864 143.668 118.075 143.668C111.286 143.668 105.763 141.558 105.763 138.92C105.763 136.317 111.286 134.171 118.075 134.171C124.864 134.171 130.386 136.317 130.386 138.92ZM133.201 138.92C133.201 135.719 126.412 133.116 118.075 133.116C109.703 133.116 102.949 135.719 102.949 138.92C102.949 142.121 109.738 144.724 118.075 144.724C126.412 144.724 133.201 142.121 133.201 138.92Z" fill="#FFC022"/>
<path d="M107.391 138.919C107.391 136.668 112.175 134.803 118.084 134.803C123.994 134.803 128.778 136.632 128.778 138.919C128.778 141.17 123.994 143.034 118.084 143.034C112.175 143.034 107.391 141.17 107.391 138.919ZM128.285 138.919C128.285 136.738 123.712 134.979 118.049 134.979C112.421 134.979 107.813 136.738 107.813 138.919C107.813 141.1 112.386 142.859 118.049 142.859C123.712 142.859 128.285 141.1 128.285 138.919Z" fill="#FFC022"/>
<path d="M116.706 137.338L110.867 139.026V140.187L116.847 138.323C117.445 138.815 118.289 139.167 119.38 139.413C119.485 139.448 119.556 139.448 119.661 139.483V140.539H121.842V139.73C122.299 139.765 122.757 139.765 123.144 139.73V140.503H125.324V137.373H123.144V138.885C122.792 138.885 122.335 138.885 121.842 138.85V137.373H119.661V138.428C119.134 138.217 118.711 137.936 118.395 137.549L116.706 137.338Z" fill="#FFC022"/>
<path d="M102.926 135.852C102.926 139.053 109.715 141.657 118.051 141.657C126.423 141.657 133.177 139.053 133.177 135.852V133.109H102.926V135.852Z" fill="#FF931E"/>
<path d="M116.602 134.514V141.655C117.059 141.655 117.551 141.69 118.044 141.69V134.55H116.602V134.514Z" fill="#D17918"/>
<path d="M113.688 134.514V141.409C114.461 141.514 115.27 141.55 116.115 141.62V134.514H113.688Z" fill="#D17918"/>
<path d="M113.092 141.339V133.108H102.926V135.851C102.926 138.384 107.182 140.565 113.092 141.339Z" fill="#D17918"/>
<path d="M123.43 134.514V141.303C123.606 141.268 123.746 141.268 123.922 141.233V134.55H123.43V134.514Z" fill="#D17918"/>
<path d="M121.566 141.514C121.742 141.514 121.883 141.479 122.059 141.479V134.514H121.566V141.514Z" fill="#D17918"/>
<path d="M119.18 134.514V141.655C119.426 141.655 119.672 141.655 119.883 141.62V134.514H119.18Z" fill="#D17918"/>
<path d="M118.051 138.914C109.68 138.914 102.926 136.311 102.926 133.11C102.926 129.909 109.715 127.306 118.051 127.306C126.423 127.306 133.177 129.909 133.177 133.11C133.177 136.311 126.388 138.914 118.051 138.914Z" fill="#FF931E"/>
<path opacity="0.4" d="M126.564 137.894C126.142 137.894 125.685 137.929 125.262 137.929C116.891 137.929 110.137 135.326 110.137 132.125C110.137 130.12 112.74 128.362 116.75 127.306C109.011 127.553 102.926 130.05 102.926 133.11C102.926 136.311 109.715 138.914 118.051 138.914C121.217 138.914 124.137 138.527 126.564 137.894Z" fill="url(#paint10_linear_2901_10883)"/>
<path d="M133.177 133.285C132.931 130.154 126.247 127.657 118.051 127.657C109.855 127.657 103.172 130.154 102.926 133.285C103.172 136.416 109.855 138.913 118.051 138.913C126.247 138.913 132.931 136.416 133.177 133.285ZM118.051 138.175C111.262 138.175 105.74 136.064 105.74 133.426C105.74 130.788 111.262 128.677 118.051 128.677C124.84 128.677 130.363 130.788 130.363 133.426C130.363 136.064 124.84 138.175 118.051 138.175Z" fill="#D17918"/>
<path d="M116.675 132.301L110.836 133.989V135.15L116.816 133.321C117.414 133.813 118.258 134.165 119.349 134.411C119.454 134.446 119.524 134.446 119.63 134.446V135.502H121.811V134.693C122.268 134.728 122.725 134.728 123.112 134.693V135.466H125.293V132.336H123.112V133.848C122.761 133.848 122.303 133.848 121.811 133.848V132.336H119.63V133.391C119.102 133.18 118.68 132.899 118.364 132.512L116.675 132.301Z" fill="#D17918"/>
<path d="M130.363 133.11C130.363 135.713 124.84 137.859 118.051 137.859C111.262 137.859 105.74 135.748 105.74 133.11C105.74 130.507 111.262 128.362 118.051 128.362C124.84 128.362 130.363 130.472 130.363 133.11ZM133.177 133.11C133.177 129.909 126.388 127.306 118.051 127.306C109.68 127.306 102.926 129.909 102.926 133.11C102.926 136.311 109.715 138.914 118.051 138.914C126.388 138.914 133.177 136.311 133.177 133.11Z" fill="#FFC022"/>
<path d="M107.355 133.111C107.355 130.859 112.139 128.995 118.049 128.995C123.959 128.995 128.742 130.824 128.742 133.111C128.742 135.362 123.959 137.226 118.049 137.226C112.139 137.191 107.355 135.362 107.355 133.111ZM128.25 133.111C128.25 130.93 123.677 129.171 118.014 129.171C112.386 129.171 107.778 130.93 107.778 133.111C107.778 135.292 112.35 137.05 118.014 137.05C123.677 137.015 128.25 135.256 128.25 133.111Z" fill="#FFC022"/>
<path d="M116.675 131.493L110.836 133.181V134.342L116.816 132.477C117.414 132.97 118.258 133.322 119.349 133.568C119.454 133.603 119.524 133.603 119.63 133.638V134.694H121.811V133.885C122.268 133.92 122.725 133.92 123.112 133.885V134.658H125.293V131.528H123.112V133.04C122.761 133.04 122.303 133.04 121.811 133.005V131.528H119.63V132.583C119.102 132.372 118.68 132.091 118.364 131.704L116.675 131.493Z" fill="#FFC022"/>
<path d="M102.926 130.005C102.926 133.206 109.715 135.809 118.051 135.809C126.423 135.809 133.177 133.206 133.177 130.005V127.261H102.926V130.005Z" fill="#FF931E"/>
<path d="M116.609 128.668V135.809C117.067 135.809 117.559 135.844 118.052 135.844V128.703H116.609V128.668Z" fill="#D17918"/>
<path d="M113.688 128.668V135.562C114.461 135.668 115.27 135.703 116.115 135.774V128.668H113.688Z" fill="#D17918"/>
<path d="M113.092 135.527V127.296H102.926V130.039C102.926 132.572 107.182 134.718 113.092 135.527Z" fill="#D17918"/>
<path d="M123.43 128.668V135.457C123.606 135.422 123.746 135.422 123.922 135.387V128.703H123.43V128.668Z" fill="#D17918"/>
<path d="M121.566 135.668C121.742 135.668 121.883 135.633 122.059 135.633V128.668H121.566V135.668Z" fill="#D17918"/>
<path d="M119.18 128.668V135.809C119.426 135.809 119.672 135.809 119.883 135.774V128.668H119.18Z" fill="#D17918"/>
<path d="M118.051 133.099C109.68 133.099 102.926 130.496 102.926 127.295C102.926 124.093 109.715 121.49 118.051 121.49C126.423 121.49 133.177 124.093 133.177 127.295C133.177 130.46 126.388 133.099 118.051 133.099Z" fill="#FF931E"/>
<path opacity="0.4" d="M126.564 132.078C126.142 132.078 125.685 132.114 125.262 132.114C116.891 132.114 110.137 129.511 110.137 126.31C110.137 124.305 112.74 122.546 116.75 121.49C109.011 121.737 102.926 124.234 102.926 127.295C102.926 130.496 109.715 133.099 118.051 133.099C121.217 133.099 124.137 132.712 126.564 132.078Z" fill="url(#paint11_linear_2901_10883)"/>
<path d="M133.177 127.436C132.931 124.305 126.247 121.808 118.051 121.808C109.855 121.808 103.172 124.305 102.926 127.436C103.172 130.566 109.855 133.064 118.051 133.064C126.247 133.099 132.931 130.566 133.177 127.436ZM118.051 132.36C111.262 132.36 105.74 130.25 105.74 127.612C105.74 125.009 111.262 122.863 118.051 122.863C124.84 122.863 130.363 124.973 130.363 127.612C130.363 130.25 124.84 132.36 118.051 132.36Z" fill="#D17918"/>
<path d="M116.675 126.45L110.836 128.139V129.299L116.816 127.47C117.414 127.963 118.258 128.315 119.349 128.561C119.454 128.596 119.524 128.596 119.63 128.631V129.686H121.811V128.877C122.268 128.913 122.725 128.913 123.112 128.877V129.651H125.293V126.521H123.112V128.033C122.761 128.033 122.303 128.033 121.811 128.033V126.556H119.63V127.611C119.102 127.4 118.68 127.119 118.364 126.732L116.675 126.45Z" fill="#D17918"/>
<path d="M130.363 127.259C130.363 129.862 124.84 132.008 118.051 132.008C111.262 132.008 105.74 129.898 105.74 127.259C105.74 124.656 111.262 122.511 118.051 122.511C124.84 122.511 130.363 124.656 130.363 127.259ZM133.177 127.259C133.177 124.058 126.388 121.455 118.051 121.455C109.68 121.455 102.926 124.058 102.926 127.259C102.926 130.46 109.715 133.063 118.051 133.063C126.388 133.099 133.177 130.46 133.177 127.259Z" fill="#FFC022"/>
<path d="M107.355 127.259C107.355 125.007 112.139 123.143 118.049 123.143C123.959 123.143 128.742 124.972 128.742 127.259C128.742 129.51 123.959 131.374 118.049 131.374C112.139 131.374 107.355 129.545 107.355 127.259ZM128.25 127.259C128.25 125.078 123.677 123.319 118.014 123.319C112.386 123.319 107.778 125.078 107.778 127.259C107.778 129.439 112.35 131.198 118.014 131.198C123.677 131.198 128.25 129.439 128.25 127.259Z" fill="#FFC022"/>
<path d="M116.675 125.677L110.836 127.366V128.526L116.816 126.662C117.414 127.155 118.258 127.506 119.349 127.753C119.454 127.788 119.524 127.788 119.63 127.823V128.878H121.811V128.069C122.268 128.104 122.725 128.104 123.112 128.069V128.843H125.293V125.712H123.112V127.225C122.761 127.225 122.303 127.225 121.811 127.225V125.748H119.63V126.803C119.102 126.592 118.68 126.31 118.364 125.923L116.675 125.677Z" fill="#FFC022"/>
<path d="M102.949 124.203C102.949 127.404 109.738 130.007 118.075 130.007C126.447 130.007 133.201 127.404 133.201 124.203V121.459H102.949V124.203Z" fill="#FF931E"/>
<path d="M116.633 122.867V130.008C117.09 130.008 117.583 130.043 118.075 130.043V122.902H116.633V122.867Z" fill="#D17918"/>
<path d="M113.711 122.867V129.761C114.485 129.867 115.294 129.902 116.138 129.972V122.867H113.711Z" fill="#D17918"/>
<path d="M113.115 129.691V121.459H102.949V124.203C102.949 126.736 107.206 128.917 113.115 129.691Z" fill="#D17918"/>
<path d="M123.457 122.867V129.656C123.633 129.621 123.774 129.621 123.95 129.585V122.902H123.457V122.867Z" fill="#D17918"/>
<path d="M121.59 129.867C121.766 129.867 121.906 129.832 122.082 129.832V122.867H121.59V129.867Z" fill="#D17918"/>
<path d="M119.203 122.867V130.008C119.449 130.008 119.696 130.008 119.907 129.972V122.867H119.203Z" fill="#D17918"/>
<path d="M118.075 127.263C109.703 127.263 102.949 124.66 102.949 121.459C102.949 118.258 109.738 115.655 118.075 115.655C126.447 115.655 133.201 118.258 133.201 121.459C133.201 124.66 126.412 127.263 118.075 127.263Z" fill="#FF931E"/>
<path opacity="0.4" d="M126.587 126.243C126.165 126.243 125.708 126.278 125.286 126.278C116.914 126.278 110.16 123.675 110.16 120.474C110.16 118.469 112.763 116.711 116.773 115.655C109.035 115.902 102.949 118.399 102.949 121.459C102.949 124.66 109.738 127.263 118.075 127.263C121.241 127.263 124.16 126.876 126.587 126.243Z" fill="url(#paint12_linear_2901_10883)"/>
<path d="M133.201 121.635C132.954 118.505 126.271 116.007 118.075 116.007C109.879 116.007 103.195 118.505 102.949 121.635C103.195 124.766 109.879 127.263 118.075 127.263C126.271 127.263 132.954 124.766 133.201 121.635ZM118.075 126.56C111.286 126.56 105.763 124.449 105.763 121.811C105.763 119.208 111.286 117.062 118.075 117.062C124.864 117.062 130.386 119.173 130.386 121.811C130.386 124.414 124.864 126.56 118.075 126.56Z" fill="#D17918"/>
<path d="M116.706 120.65L110.867 122.339V123.499L116.847 121.67C117.445 122.163 118.289 122.514 119.38 122.761C119.485 122.796 119.556 122.796 119.661 122.796V123.851H121.842V123.042C122.299 123.077 122.757 123.077 123.144 123.042V123.816H125.324V120.685H123.144V122.198C122.792 122.198 122.335 122.198 121.842 122.163V120.685H119.661V121.741C119.134 121.53 118.711 121.248 118.395 120.861L116.706 120.65Z" fill="#D17918"/>
<path d="M130.386 121.459C130.386 124.062 124.864 126.208 118.075 126.208C111.286 126.208 105.763 124.097 105.763 121.459C105.763 118.856 111.286 116.711 118.075 116.711C124.864 116.711 130.386 118.821 130.386 121.459ZM133.201 121.459C133.201 118.258 126.412 115.655 118.075 115.655C109.703 115.655 102.949 118.258 102.949 121.459C102.949 124.66 109.738 127.263 118.075 127.263C126.412 127.263 133.201 124.66 133.201 121.459Z" fill="#FFC022"/>
<path d="M107.391 121.457C107.391 119.206 112.175 117.341 118.084 117.341C123.994 117.341 128.778 119.17 128.778 121.457C128.778 123.708 123.994 125.572 118.084 125.572C112.175 125.572 107.391 123.708 107.391 121.457ZM128.285 121.457C128.285 119.276 123.712 117.517 118.049 117.517C112.421 117.517 107.813 119.276 107.813 121.457C107.813 123.638 112.386 125.396 118.049 125.396C123.712 125.361 128.285 123.603 128.285 121.457Z" fill="#FFC022"/>
<path d="M116.706 119.84L110.867 121.529V122.69L116.847 120.825C117.445 121.318 118.289 121.67 119.38 121.916C119.485 121.951 119.556 121.951 119.661 121.986V123.041H121.842V122.232C122.299 122.268 122.757 122.268 123.144 122.232V123.006H125.324V119.876H123.144V121.388C122.792 121.388 122.335 121.388 121.842 121.388V119.911H119.661V120.966C119.134 120.755 118.711 120.474 118.395 120.087L116.706 119.84Z" fill="#FFC022"/>
<path opacity="0.6" d="M86.6447 122.798C84.3935 122.236 81.5794 125.225 79.4337 130.045C79.4337 130.045 79.4337 130.045 79.4337 130.08C79.4688 130.15 79.4688 130.22 79.504 130.256C79.504 130.291 79.5392 130.326 79.5392 130.326C79.5744 130.396 79.6096 130.502 79.6447 130.572C79.6447 130.572 79.6447 130.607 79.6799 130.607C79.7151 130.678 79.7503 130.748 79.8206 130.818C79.8558 130.854 79.8558 130.889 79.891 130.924C79.891 130.924 79.891 130.924 79.891 130.959C79.8558 130.994 79.8206 131.03 79.8206 131.065C79.7854 131.1 79.7503 131.17 79.7151 131.205C79.6799 131.241 79.6799 131.276 79.6447 131.346C79.6096 131.381 79.6096 131.452 79.5744 131.487C79.5392 131.522 79.5392 131.557 79.504 131.592C79.4688 131.663 79.4688 131.698 79.4337 131.768C79.4337 131.803 79.3985 131.839 79.3985 131.874C79.3985 131.944 79.3633 132.014 79.3633 132.05C79.3633 132.085 79.3633 132.12 79.3281 132.155C79.3281 132.261 79.293 132.366 79.293 132.437V135.18C79.293 135.286 79.293 135.356 79.3281 135.462C79.3281 135.497 79.3281 135.532 79.3281 135.532C79.3281 135.602 79.3633 135.673 79.3633 135.708C79.3633 135.743 79.3633 135.778 79.3985 135.813C79.4337 135.884 79.4337 135.954 79.4688 135.989C79.4688 136.024 79.504 136.06 79.504 136.06C79.5392 136.13 79.5744 136.236 79.6096 136.306L79.6447 136.341C79.6799 136.411 79.7151 136.482 79.7854 136.552C79.8206 136.587 79.8206 136.622 79.8558 136.658C79.8558 136.658 79.8558 136.658 79.8558 136.693C79.8206 136.728 79.7854 136.763 79.7854 136.798C79.7503 136.834 79.7151 136.904 79.6799 136.939C79.6447 136.974 79.6447 137.009 79.6096 137.045C79.5744 137.115 79.5744 137.15 79.5392 137.22C79.504 137.256 79.504 137.291 79.504 137.326C79.4688 137.396 79.4688 137.432 79.4337 137.502C79.4337 137.537 79.3985 137.572 79.3985 137.607C79.3985 137.678 79.3633 137.748 79.3633 137.783C79.3633 137.818 79.3633 137.854 79.3281 137.889C79.3281 137.994 79.293 138.1 79.293 138.17V140.914C79.293 141.019 79.293 141.09 79.3281 141.195C79.3281 141.231 79.3281 141.266 79.3281 141.266C79.3281 141.336 79.3633 141.406 79.3633 141.442C79.3633 141.477 79.3633 141.512 79.3985 141.547C79.4337 141.617 79.4337 141.688 79.4688 141.723C79.4688 141.758 79.504 141.793 79.504 141.793C79.5392 141.864 79.5744 141.969 79.6096 142.04C79.6096 142.04 79.6096 142.075 79.6447 142.075C79.6799 142.145 79.7151 142.215 79.7854 142.286C79.8206 142.321 79.8206 142.356 79.8558 142.391C79.891 142.462 79.9261 142.497 79.9613 142.567C79.9965 142.602 79.9965 142.638 80.0317 142.673C80.0668 142.743 80.1372 142.778 80.1724 142.849C80.2075 142.884 80.2075 142.919 80.2427 142.919C80.3131 142.989 80.3834 143.06 80.4889 143.165C80.5241 143.2 80.5593 143.236 80.5945 143.236C80.6648 143.271 80.7 143.341 80.7704 143.376C80.8055 143.411 80.8407 143.447 80.9111 143.482C80.9814 143.517 81.0166 143.552 81.0869 143.622C81.1221 143.658 81.1925 143.693 81.2276 143.728C81.298 143.763 81.3332 143.798 81.4035 143.834C81.4387 143.869 81.5091 143.904 81.5442 143.939C81.6498 144.009 81.7553 144.08 81.8608 144.115C81.9312 144.15 82.0015 144.185 82.0719 144.22C82.1422 144.256 82.1774 144.291 82.2477 144.326C82.3181 144.361 82.3884 144.396 82.494 144.432C82.5292 144.467 82.5995 144.467 82.6347 144.502C82.705 144.537 82.8106 144.572 82.8809 144.607C82.9161 144.643 82.9513 144.643 83.0216 144.678C83.3382 144.818 83.69 144.959 84.0417 145.1C84.0769 145.1 84.1121 145.135 84.1472 145.135C84.2528 145.17 84.3935 145.205 84.499 145.241C84.5342 145.241 84.5694 145.276 84.6045 145.276C85.097 145.452 85.6246 145.592 86.1874 145.733C87.1724 143.728 88.0518 141.336 88.6849 138.698C90.6548 130.783 89.7402 123.572 86.6447 122.798Z" fill="#CCCCCC"/>
<path d="M74.4975 149.242C77.4875 150.438 82.4121 145.091 85.4724 137.317C88.5679 129.543 88.6383 122.297 85.6483 121.101L83.0805 120.081L71.9297 148.222L74.4975 149.242Z" fill="#FF931E"/>
<path d="M78.2969 136.014L84.91 138.653C85.0858 138.23 85.2969 137.773 85.4728 137.316L78.8245 134.678L78.2969 136.014Z" fill="#D17918"/>
<path d="M77.2461 138.725L83.6833 141.258C84.0702 140.554 84.422 139.851 84.7737 139.077L78.1607 136.474L77.2461 138.725Z" fill="#D17918"/>
<path d="M83.3619 141.818L75.6935 138.793L71.9297 148.255L74.4624 149.275C76.8895 150.19 80.4423 147.024 83.3619 141.818Z" fill="#D17918"/>
<path d="M80.8359 129.684L87.1324 132.181C87.1676 132.005 87.2028 131.865 87.238 131.689L81.0118 129.226L80.8359 129.684Z" fill="#D17918"/>
<path d="M86.6404 134.011C86.6755 133.836 86.7459 133.695 86.7811 133.519L80.3087 130.951L80.1328 131.408L86.6404 134.011Z" fill="#D17918"/>
<path d="M79.25 133.658L85.8983 136.296C85.9686 136.085 86.0741 135.839 86.1445 135.628L79.5314 133.025L79.25 133.658Z" fill="#D17918"/>
<path d="M82.9434 136.296C79.8479 144.07 74.9584 149.417 71.9685 148.221C68.9785 147.025 69.0489 139.778 72.1444 132.004C75.2398 124.231 80.1293 118.884 83.1192 120.08C86.1092 121.276 86.0037 128.522 82.9434 136.296Z" fill="#FF931E"/>
<path opacity="0.4" d="M85.1191 127.993C84.9784 128.38 84.8377 128.802 84.6619 129.225C81.5664 136.998 76.6769 142.345 73.687 141.149C71.8226 140.411 71.1543 137.315 71.6468 133.235C69.0437 140.516 69.1141 147.094 71.9282 148.22C74.9181 149.416 79.8427 144.069 82.9031 136.295C84.099 133.375 84.8377 130.491 85.1191 127.993Z" fill="url(#paint13_linear_2901_10883)"/>
<path d="M83.2553 120.186C80.2654 119.272 75.4463 124.548 72.4563 132.181C69.4312 139.814 69.3257 146.92 72.1397 148.327C75.1297 149.242 79.9136 143.965 82.9388 136.332C85.9639 128.699 86.0694 121.558 83.2553 120.186ZM82.2704 136.051C79.7729 142.347 75.7629 146.709 73.3357 145.759C70.9086 144.809 70.9789 138.865 73.4764 132.568C75.9739 126.272 79.984 121.91 82.4111 122.86C84.8383 123.809 84.7679 129.719 82.2704 136.051Z" fill="#D17918"/>
<path d="M76.2581 135.136L75.6602 141.186L76.7506 141.608L77.2431 135.347C77.9114 134.96 78.5446 134.327 79.1777 133.377C79.2129 133.306 79.2833 133.236 79.3185 133.131L80.3034 133.517L81.1124 131.512L80.3737 131.231C80.5848 130.809 80.7255 130.387 80.8662 130.035L81.6049 130.316L82.4139 128.311L79.4943 127.151L78.6853 129.156L80.0923 129.718C79.9868 130.07 79.8109 130.492 79.5999 130.914L78.228 130.352L77.419 132.357L78.4039 132.744C78.0169 133.166 77.5948 133.447 77.1024 133.588L76.2581 135.136Z" fill="#D17918"/>
<path d="M82.064 122.718C84.4911 123.668 84.4208 129.613 81.9233 135.909C79.4258 142.241 75.4157 146.567 72.9886 145.618C70.5614 144.668 70.6318 138.723 73.1293 132.427C75.6268 126.095 79.6368 121.733 82.064 122.718ZM83.1192 120.08C80.1293 118.884 75.2047 124.231 72.1444 132.004C69.0489 139.778 68.9785 147.025 71.9685 148.221C74.9584 149.417 79.8831 144.07 82.9434 136.296C86.0037 128.522 86.1092 121.276 83.1192 120.08Z" fill="#FFC022"/>
<path d="M73.5753 144.104C71.4647 143.26 71.5351 138.124 73.6808 132.636C75.8617 127.149 79.3441 123.385 81.4547 124.229C83.5652 125.074 83.4949 130.209 81.3492 135.697C79.1682 141.149 75.6858 144.948 73.5753 144.104ZM81.2788 124.652C79.2738 123.842 75.9321 127.466 73.8567 132.707C71.7813 137.948 71.7461 142.873 73.7512 143.647C75.7562 144.456 79.0979 140.832 81.1733 135.591C83.2487 130.385 83.2838 125.461 81.2788 124.652Z" fill="#FFC022"/>
<path d="M75.555 134.853L74.957 140.903L76.0475 141.325L76.5399 135.064C77.2083 134.677 77.8415 134.044 78.4746 133.094C78.5098 133.024 78.5802 132.953 78.6153 132.848L79.6003 133.235L80.4093 131.23L79.6706 130.948C79.8465 130.526 80.0224 130.104 80.1631 129.752L80.9018 130.034L81.7108 128.029L78.7912 126.868L77.9822 128.873L79.3892 129.436C79.2837 129.788 79.1078 130.21 78.8967 130.632L77.5249 130.069L76.7158 132.074L77.7008 132.461C77.3138 132.883 76.8917 133.165 76.3992 133.305L75.555 134.853Z" fill="#FFC022"/>
<path opacity="0.6" d="M123.927 152.839C129.379 151.959 133.178 149.884 133.178 147.492V144.748C133.178 144.221 133.002 143.693 132.65 143.2C133.002 142.708 133.178 142.18 133.178 141.653V138.909C133.178 138.381 133.002 137.854 132.65 137.361C133.002 136.869 133.178 136.341 133.178 135.813V133.07C133.178 132.542 133.002 132.014 132.65 131.522C133.002 131.03 133.178 130.502 133.178 129.974V129.939C130.083 128.849 124.278 133.527 119.846 140.844C117.138 145.346 115.52 149.849 115.238 153.155C115.52 153.19 115.801 153.19 116.083 153.19C116.716 153.226 117.349 153.226 118.017 153.226C118.65 153.226 119.248 153.226 119.846 153.19C121.148 153.12 122.414 153.014 123.61 152.839C123.751 152.874 123.821 152.839 123.927 152.839Z" fill="#CCCCCC"/>
<path d="M141.404 158.298C138.414 159.494 133.49 154.148 130.43 146.374C127.334 138.6 127.264 131.354 130.254 130.158L132.821 129.138L143.972 157.278L141.404 158.298Z" fill="#FF931E"/>
<path d="M137.613 145.071L131 147.71C130.824 147.287 130.613 146.83 130.438 146.373L137.086 143.735L137.613 145.071Z" fill="#D17918"/>
<path d="M138.668 147.78L132.231 150.312C131.844 149.609 131.492 148.905 131.141 148.132L137.754 145.529L138.668 147.78Z" fill="#D17918"/>
<path d="M132.551 150.875L140.219 147.85L143.983 157.312L141.45 158.333C139.058 159.247 135.47 156.081 132.551 150.875Z" fill="#D17918"/>
<path d="M135.078 138.741L128.781 141.238C128.746 141.062 128.711 140.922 128.676 140.746L134.902 138.284L135.078 138.741Z" fill="#D17918"/>
<path d="M129.277 143.066C129.242 142.89 129.172 142.75 129.137 142.574L135.609 140.006L135.785 140.463L129.277 143.066Z" fill="#D17918"/>
<path d="M136.66 142.68L130.012 145.318C129.942 145.107 129.836 144.861 129.766 144.65L136.379 142.047L136.66 142.68Z" fill="#D17918"/>
<path d="M132.973 145.355C136.069 153.129 140.958 158.476 143.948 157.28C146.938 156.084 146.868 148.838 143.772 141.064C140.677 133.29 135.788 127.943 132.798 129.139C129.843 130.335 129.913 137.582 132.973 145.355Z" fill="#FF931E"/>
<path opacity="0.4" d="M130.793 137.055C130.934 137.442 131.074 137.864 131.25 138.286C134.346 146.06 139.235 151.406 142.225 150.21C144.089 149.472 144.758 146.376 144.265 142.296C146.868 149.577 146.798 156.155 143.984 157.281C140.994 158.477 136.069 153.13 133.009 145.356C131.813 142.436 131.074 139.552 130.793 137.055Z" fill="url(#paint14_linear_2901_10883)"/>
<path d="M132.968 145.355C135.993 152.988 140.777 158.264 143.767 157.35C146.581 155.978 146.476 148.837 143.45 141.204C140.425 133.571 135.641 128.294 132.651 129.209C129.837 130.616 129.943 137.721 132.968 145.355ZM133.531 131.882C135.958 130.932 139.968 135.259 142.466 141.591C144.963 147.887 145.033 153.832 142.606 154.782C140.179 155.731 136.169 151.405 133.672 145.073C131.139 138.777 131.104 132.867 133.531 131.882Z" fill="#D17918"/>
<path d="M139.652 144.194L140.25 150.245L139.159 150.667L138.667 144.405C137.999 144.019 137.365 143.385 136.732 142.436C136.697 142.365 136.627 142.295 136.592 142.189L135.607 142.576L134.798 140.571L135.536 140.29C135.325 139.868 135.185 139.446 135.044 139.094L134.305 139.375L133.496 137.37L136.416 136.209L137.225 138.215L135.818 138.777C135.923 139.129 136.099 139.551 136.31 139.973L137.682 139.41L138.491 141.416L137.506 141.802C137.893 142.225 138.315 142.506 138.808 142.647L139.652 144.194Z" fill="#D17918"/>
<path d="M133.852 131.776C136.279 130.827 140.289 135.153 142.787 141.485C145.284 147.781 145.354 153.726 142.927 154.676C140.5 155.626 136.49 151.299 133.993 144.967C131.495 138.636 131.425 132.726 133.852 131.776ZM132.832 129.138C129.842 130.334 129.912 137.58 133.008 145.354C136.103 153.128 140.993 158.475 143.983 157.279C146.972 156.083 146.902 148.837 143.807 141.063C140.711 133.289 135.822 127.977 132.832 129.138Z" fill="#FFC022"/>
<path d="M134.588 144.724C132.407 139.237 132.372 134.101 134.483 133.257C136.593 132.413 140.076 136.212 142.257 141.664C144.438 147.151 144.473 152.287 142.362 153.131C140.216 153.975 136.734 150.212 134.588 144.724ZM134.729 144.654C136.804 149.895 140.146 153.518 142.151 152.709C144.156 151.9 144.121 147.011 142.046 141.769C139.97 136.528 136.628 132.905 134.623 133.714C132.618 134.523 132.654 139.413 134.729 144.654Z" fill="#FFC022"/>
<path d="M140.39 143.912L140.988 149.963L139.898 150.385L139.405 144.123C138.737 143.737 138.104 143.103 137.471 142.154C137.435 142.083 137.365 142.013 137.33 141.907L136.345 142.294L135.536 140.289L136.275 140.008C136.099 139.586 135.923 139.164 135.782 138.812L135.043 139.093L134.234 137.088L137.154 135.927L137.963 137.933L136.556 138.495C136.662 138.847 136.837 139.269 137.048 139.691L138.42 139.128L139.229 141.134L138.244 141.52C138.631 141.943 139.053 142.224 139.546 142.365L140.39 143.912Z" fill="#FFC022"/>
<path d="M85.3844 126.456L84.7512 124.909L84.1181 126.456L82.5703 127.089L84.1181 127.723L84.7512 129.27L85.3844 127.723L86.9321 127.089L85.3844 126.456Z" fill="white"/>
<path d="M129.771 124.803L129.138 123.256L128.54 124.803L126.957 125.437L128.54 126.035L129.138 127.617L129.771 126.035L131.319 125.437L129.771 124.803Z" fill="white"/>
<path d="M144.338 107.391L143.704 105.808L143.106 107.391L141.523 107.989L143.106 108.623L143.704 110.17L144.338 108.623L145.885 107.989L144.338 107.391Z" fill="white"/>
<path d="M107.052 136.163L106.419 134.58L105.821 136.163L104.238 136.761L105.821 137.394L106.419 138.977L107.052 137.394L108.6 136.761L107.052 136.163Z" fill="white"/>
<path d="M84.5452 60.8171C84.5452 60.8171 76.1734 66.9378 73.5352 71.581C73.5352 71.581 84.7211 63.2795 90.701 60.8171H84.5452Z" fill="#DAB873"/>
<path d="M87.0352 60.8171C87.0352 60.8171 93.4724 64.2292 96.6382 71.581C96.6382 71.581 96.2161 65.3548 92.8744 60.8171H87.0352Z" fill="#DAB873"/>
<path d="M99.8828 76.189C99.8828 76.189 105.546 86.8121 108.606 98.4202C108.606 98.4202 109.275 85.2292 99.8828 76.189Z" fill="#DAB873"/>
<path d="M107.375 77.526C107.375 77.526 113.038 88.1491 116.099 99.7572C116.099 99.7572 116.767 86.6014 107.375 77.526Z" fill="#E8C47B"/>
<path d="M98.4688 81.5003C98.4688 81.5003 107.966 79.9525 116.62 82.1686C116.62 82.1686 107.966 77.7013 98.4688 81.5003Z" fill="#E8C47B"/>
<path d="M100.547 86.6005C100.547 86.6005 110.044 85.0528 118.698 87.2689C118.698 87.304 110.044 82.8015 100.547 86.6005Z" fill="#E8C47B"/>
<path d="M100.547 86.6007C100.547 86.6007 103.748 86.0731 108.11 86.0731C107.969 85.7565 107.828 85.4047 107.688 85.0881C105.472 85.1937 103.044 85.6158 100.547 86.6007Z" fill="#DAB873"/>
<path d="M105.75 80.9715C105.574 80.6549 105.434 80.3383 105.258 79.9866C103.147 80.0921 100.826 80.5494 98.4688 81.4991C98.4688 81.4991 101.529 81.0067 105.75 80.9715Z" fill="#DAB873"/>
<path d="M74.9375 34.8917L87.0732 57.5802V33.3792C86.827 33.4847 86.6159 33.555 86.3697 33.6606C86.3345 33.6606 86.2993 33.6957 86.229 33.6957C85.9827 33.8013 85.7717 33.8716 85.5255 33.9771H85.4903C85.244 34.0827 84.9978 34.153 84.7516 34.2585C84.7164 34.2937 84.6461 34.2937 84.6109 34.2937C84.435 34.3641 84.224 34.4344 84.0481 34.5048C83.9777 34.54 83.9074 34.54 83.837 34.5751C83.626 34.6455 83.3797 34.7158 83.1687 34.7862C83.1335 34.7862 83.1335 34.7862 83.0983 34.7862C82.8521 34.8565 82.641 34.9269 82.3948 34.9621C82.3245 34.9621 82.2541 34.9972 82.2189 34.9972C82.043 35.0324 81.8672 35.0676 81.6913 35.1028C81.6209 35.1028 81.5506 35.1379 81.4802 35.1379C81.234 35.1731 81.0229 35.2083 80.7767 35.2435C78.8069 35.4897 76.837 35.2787 74.9375 34.8917Z" fill="#DAB873"/>
<path d="M71.7661 34.1184C71.5199 34.0481 71.2385 33.9777 70.9219 33.8722L80.9822 49.2793L73.6304 34.6109C72.9973 34.4702 72.3641 34.2943 71.7661 34.1184Z" fill="#DAB873"/>
<path d="M125.657 33.5206C127.522 32.0784 127.909 30.0031 124.567 29.6513C118.693 29.0533 114.823 34.1186 108.984 34.5056L95.582 60.782H100.788L125.657 33.5206Z" fill="#DAB873"/>
<path d="M97.207 54.3448L107.127 34.5056C105.086 34.2945 103.75 33.3448 102.448 32.395L97.207 54.3448Z" fill="#DAB873"/>
<path d="M81.4133 117.168C70.5792 117.168 61.75 108.55 61.75 97.9624C61.75 87.3745 70.5792 78.7563 81.4133 78.7563C92.2475 78.7563 101.077 87.3745 101.077 97.9624C101.077 108.55 92.2827 117.168 81.4133 117.168ZM81.4133 81.2187C71.9158 81.2187 64.2123 88.7111 64.2123 97.9624C64.2123 107.179 71.9158 114.706 81.4133 114.706C90.9108 114.706 98.6144 107.214 98.6144 97.9624C98.6144 88.7463 90.9108 81.2187 81.4133 81.2187Z" fill="#534741"/>
<path d="M74.4492 100.285L81.8362 110.169H86.9719L78.8462 100.039C80.9568 99.0537 82.5397 97.6115 83.595 95.7471C83.6653 95.6064 83.7357 95.4306 83.8412 95.2899H88.4141V91.6316H84.8965C85.002 90.8225 85.002 90.0838 84.9668 89.4507H88.4141V85.7924H74.6603V89.4507H81.3085C81.3789 90.0487 81.3789 90.8225 81.2382 91.6316H74.6954V95.2899H79.3738C78.4945 96.1693 77.2281 96.908 75.4693 97.4004L74.4492 100.285Z" fill="#534741"/>
<path d="M105.757 59.8676C105.651 59.8676 105.546 59.8676 105.405 59.8324C96.2243 57.7922 79.2695 59.8324 79.0936 59.8676C78.1438 59.9731 77.2645 59.1993 77.1589 58.1088C77.0534 57.0184 77.7569 56.0334 78.7067 55.9279C79.4102 55.8576 96.365 53.8174 106.074 55.9631C107.023 56.1741 107.656 57.2294 107.445 58.2847C107.305 59.1993 106.566 59.8676 105.757 59.8676Z" fill="#FF931E"/>
<path d="M90.5639 55.0459C90.2825 55.0459 89.9659 55.0811 89.6845 55.0811C89.1569 55.9253 88.4533 57.2972 88.0664 59.1263C88.3126 59.1263 88.5589 59.0911 88.8051 59.0911C89.2624 57.0861 90.0714 55.7142 90.5639 55.0459Z" fill="#BF6E17"/>
<path d="M85.5677 55.2932C85.2863 55.3284 84.9698 55.3284 84.6883 55.3636C84.1607 56.2781 83.5275 57.65 83.1758 59.444C83.422 59.4088 83.6682 59.4088 83.9145 59.3736C84.3014 57.4741 85.0401 56.0671 85.5677 55.2932Z" fill="#BF6E17"/>
<path d="M88.0639 55.1521C87.7825 55.1521 87.4659 55.1873 87.1845 55.1873C86.6568 56.0667 85.9885 57.4385 85.6016 59.2677C85.8478 59.2677 86.094 59.2325 86.3403 59.2325C86.7975 57.2627 87.5714 55.8908 88.0639 55.1521Z" fill="#BF6E17"/>
<path d="M83.0325 55.5039C82.716 55.5391 82.4346 55.5391 82.1531 55.5743C81.6255 56.524 81.0275 57.8959 80.7109 59.6898C80.922 59.6547 81.1682 59.6547 81.4496 59.6195C81.8014 57.7552 82.5049 56.3481 83.0325 55.5039Z" fill="#BF6E17"/>
<path d="M79.5867 55.8205C79.0942 56.7702 78.5666 58.0718 78.2852 59.725C78.4962 59.8306 78.7424 59.8657 78.9887 59.8657C79.3053 58.0366 79.9384 56.6295 80.4661 55.715C80.1495 55.7501 79.8329 55.7853 79.5867 55.8205Z" fill="#BF6E17"/>
<path d="M104.599 55.6446C104.353 55.6094 104.106 55.5742 103.86 55.5391C103.368 56.4185 102.805 57.72 102.453 59.3381C102.699 59.3732 102.91 59.4084 103.157 59.4436C103.508 57.7551 104.106 56.4888 104.599 55.6446Z" fill="#BF6E17"/>
<path d="M106.11 55.9607H106.075C105.582 56.8753 105.09 58.1416 104.844 59.7245C105.055 59.7597 105.266 59.7949 105.442 59.8652C105.477 59.8652 105.512 59.8652 105.512 59.8652C105.794 58.3527 106.251 57.1215 106.708 56.2421C106.532 56.1014 106.321 55.9959 106.11 55.9607Z" fill="#BF6E17"/>
<path d="M100.095 55.1531C99.8137 55.1179 99.5674 55.1179 99.286 55.1179C98.7584 55.927 98.1252 57.2637 97.7031 59.0224C97.9494 59.0224 98.1956 59.0576 98.4066 59.0576C98.8991 57.1581 99.6378 55.8566 100.095 55.1531Z" fill="#BF6E17"/>
<path d="M102.38 55.3636C102.134 55.3284 101.853 55.2932 101.606 55.2932C101.114 56.1374 100.481 57.4389 100.094 59.1274C100.34 59.1274 100.586 59.1626 100.797 59.1977C101.219 57.4038 101.888 56.1023 102.38 55.3636Z" fill="#BF6E17"/>
<path d="M97.7748 55.0119C97.4934 55.0119 97.212 54.9767 96.9306 54.9767C96.403 55.7857 95.7346 57.1224 95.3125 58.9164C95.5587 58.9164 95.805 58.9164 96.0512 58.9164C96.5437 57.0169 97.3175 55.6802 97.7748 55.0119Z" fill="#BF6E17"/>
<path d="M94.5751 54.9767C94.0475 55.7857 93.344 57.1224 92.9219 58.9516C93.1681 58.9516 93.4143 58.9516 93.6606 58.9516C94.153 56.9817 94.9973 55.6099 95.4194 54.9767C95.138 54.9767 94.8566 54.9767 94.5751 54.9767Z" fill="#BF6E17"/>
<path d="M92.9897 54.9767C92.7083 54.9767 92.4269 54.9767 92.1103 54.9767C91.5827 55.7857 90.8791 57.1576 90.457 58.9867C90.7033 58.9867 90.9495 58.9867 91.1957 58.9516C91.6882 57.0169 92.5324 55.6099 92.9897 54.9767Z" fill="#BF6E17"/>
<path opacity="0.8" d="M105.755 58.1781C105.65 58.1781 105.544 58.1781 105.404 58.1429C96.2228 56.1027 79.268 58.1429 79.0921 58.1781C78.3182 58.2836 77.6147 57.7912 77.2981 57.0525C77.1574 57.3691 77.0871 57.7208 77.1222 58.1078C77.2278 59.1982 78.1072 59.9721 79.0569 59.8666C79.2328 59.8314 96.1876 57.8264 105.369 59.8314C105.474 59.8666 105.58 59.8666 105.72 59.8666C106.529 59.8666 107.268 59.1982 107.444 58.2836C107.514 57.8615 107.444 57.4394 107.303 57.0525C107.057 57.7208 106.424 58.1781 105.755 58.1781Z" fill="#B3B3B3"/>
<path d="M105.757 63.8433C105.651 63.8433 105.546 63.8433 105.405 63.8081C96.2243 61.7679 79.2695 63.8081 79.0936 63.8433C78.1438 63.9489 77.2645 63.175 77.1589 62.0845C77.0534 60.9941 77.7569 60.0091 78.7067 59.9036C79.4102 59.8333 96.365 57.7931 106.074 59.9388C107.023 60.1498 107.656 61.2051 107.445 62.2604C107.305 63.2102 106.566 63.8433 105.757 63.8433Z" fill="#FF931E"/>
<path d="M90.5639 59.0238C90.2825 59.0238 89.9659 59.059 89.6845 59.059C89.1569 59.9032 88.4533 61.2751 88.0664 63.1042C88.3126 63.1042 88.5589 63.069 88.8051 63.069C89.2624 61.064 90.0714 59.6921 90.5639 59.0238Z" fill="#BF6E17"/>
<path d="M85.5677 59.2714C85.2863 59.3065 84.9698 59.3065 84.6883 59.3417C84.1607 60.2563 83.5275 61.6281 83.1758 63.4221C83.422 63.3869 83.6682 63.3869 83.9145 63.3518C84.3014 61.4523 85.0401 60.0804 85.5677 59.2714Z" fill="#BF6E17"/>
<path d="M88.0639 59.13C87.7825 59.13 87.4659 59.1652 87.1845 59.1652C86.6568 60.0446 85.9885 61.4164 85.6016 63.2456C85.8478 63.2456 86.094 63.2104 86.3403 63.2104C86.7975 61.2406 87.5714 59.8687 88.0639 59.13Z" fill="#BF6E17"/>
<path d="M83.0325 59.4819C82.716 59.5171 82.4346 59.5171 82.1531 59.5523C81.6255 60.502 81.0275 61.8739 80.7109 63.6679C80.922 63.6327 81.1682 63.6327 81.4496 63.5975C81.8014 61.7332 82.5049 60.3262 83.0325 59.4819Z" fill="#BF6E17"/>
<path d="M79.5867 59.7979C79.0942 60.7477 78.5666 62.0492 78.2852 63.7024C78.4962 63.808 78.7424 63.8431 78.9887 63.8431C79.3053 62.014 79.9384 60.607 80.4661 59.6924C80.1495 59.7276 79.8329 59.7627 79.5867 59.7979Z" fill="#BF6E17"/>
<path d="M104.599 59.6226C104.353 59.5874 104.106 59.5523 103.86 59.5171C103.368 60.3965 102.805 61.698 102.453 63.3161C102.699 63.3513 102.91 63.3864 103.157 63.4216C103.508 61.7332 104.106 60.4668 104.599 59.6226Z" fill="#BF6E17"/>
<path d="M106.11 59.9381H106.075C105.582 60.8527 105.09 62.119 104.844 63.7019C105.055 63.7371 105.266 63.7723 105.442 63.8426C105.477 63.8426 105.512 63.8426 105.512 63.8426C105.794 62.3301 106.251 61.0989 106.708 60.2195C106.532 60.0788 106.321 59.9733 106.11 59.9381Z" fill="#BF6E17"/>
<path d="M100.095 59.1305C99.8137 59.0953 99.5674 59.0953 99.286 59.0953C98.7584 59.9044 98.1252 61.2411 97.7031 62.9999C97.9494 62.9999 98.1956 63.035 98.4066 63.035C98.8991 61.1355 99.6378 59.834 100.095 59.1305Z" fill="#BF6E17"/>
<path d="M102.38 59.3417C102.134 59.3065 101.853 59.2714 101.606 59.2714C101.114 60.1156 100.481 61.4171 100.094 63.1055C100.34 63.1055 100.586 63.1407 100.797 63.1759C101.219 61.3819 101.888 60.0804 102.38 59.3417Z" fill="#BF6E17"/>
<path d="M97.7748 58.9893C97.4934 58.9893 97.212 58.9541 96.9306 58.9541C96.403 59.7631 95.7346 61.0998 95.3125 62.8938C95.5587 62.8938 95.805 62.8938 96.0512 62.8938C96.5437 60.9943 97.3175 59.6576 97.7748 58.9893Z" fill="#BF6E17"/>
<path d="M94.5751 58.9541C94.0475 59.7631 93.344 61.0998 92.9219 62.929C93.1681 62.929 93.4143 62.929 93.6606 62.929C94.153 60.9591 94.9973 59.5873 95.4194 58.9541C95.138 58.9541 94.8566 58.9541 94.5751 58.9541Z" fill="#BF6E17"/>
<path d="M92.9897 58.9541C92.7083 58.9541 92.4269 58.9541 92.1103 58.9541C91.5827 59.7631 90.8791 61.135 90.457 62.9642C90.7033 62.9642 90.9495 62.9642 91.1957 62.929C91.6882 60.9943 92.5324 59.5873 92.9897 58.9541Z" fill="#BF6E17"/>
<path opacity="0.8" d="M105.755 62.155C105.65 62.155 105.544 62.155 105.404 62.1199C96.2228 60.0797 79.268 62.1199 79.0921 62.155C78.3182 62.2606 77.6147 61.7681 77.2981 61.0294C77.1574 61.346 77.0871 61.6978 77.1222 62.0847C77.2278 63.1752 78.1072 63.949 79.0569 63.8435C79.2328 63.8083 96.1876 61.8033 105.369 63.8083C105.474 63.8435 105.58 63.8435 105.72 63.8435C106.529 63.8435 107.268 63.1752 107.444 62.2606C107.514 61.8385 107.444 61.4164 107.303 61.0294C107.057 61.6978 106.424 62.155 105.755 62.155Z" fill="#B3B3B3"/>
<defs>
<linearGradient id="paint0_linear_2901_10883" x1="91.1631" y1="132.526" x2="91.1631" y2="144.142" gradientUnits="userSpaceOnUse">
<stop stop-color="white"/>
<stop offset="1" stop-color="#D17918"/>
</linearGradient>
<linearGradient id="paint1_linear_2901_10883" x1="91.1631" y1="126.711" x2="91.1631" y2="138.326" gradientUnits="userSpaceOnUse">
<stop stop-color="white"/>
<stop offset="1" stop-color="#D17918"/>
</linearGradient>
<linearGradient id="paint2_linear_2901_10883" x1="91.1631" y1="120.881" x2="91.1631" y2="132.497" gradientUnits="userSpaceOnUse">
<stop stop-color="white"/>
<stop offset="1" stop-color="#D17918"/>
</linearGradient>
<linearGradient id="paint3_linear_2901_10883" x1="128.402" y1="121.343" x2="128.402" y2="132.959" gradientUnits="userSpaceOnUse">
<stop stop-color="white"/>
<stop offset="1" stop-color="#D17918"/>
</linearGradient>
<linearGradient id="paint4_linear_2901_10883" x1="128.426" y1="115.518" x2="128.426" y2="127.134" gradientUnits="userSpaceOnUse">
<stop stop-color="white"/>
<stop offset="1" stop-color="#D17918"/>
</linearGradient>
<linearGradient id="paint5_linear_2901_10883" x1="128.402" y1="109.706" x2="128.402" y2="121.322" gradientUnits="userSpaceOnUse">
<stop stop-color="white"/>
<stop offset="1" stop-color="#D17918"/>
</linearGradient>
<linearGradient id="paint6_linear_2901_10883" x1="128.426" y1="103.882" x2="128.426" y2="115.498" gradientUnits="userSpaceOnUse">
<stop stop-color="white"/>
<stop offset="1" stop-color="#D17918"/>
</linearGradient>
<linearGradient id="paint7_linear_2901_10883" x1="128.402" y1="98.0684" x2="128.402" y2="109.684" gradientUnits="userSpaceOnUse">
<stop stop-color="white"/>
<stop offset="1" stop-color="#D17918"/>
</linearGradient>
<linearGradient id="paint8_linear_2901_10883" x1="114.742" y1="138.938" x2="114.742" y2="150.554" gradientUnits="userSpaceOnUse">
<stop stop-color="white"/>
<stop offset="1" stop-color="#D17918"/>
</linearGradient>
<linearGradient id="paint9_linear_2901_10883" x1="114.765" y1="133.123" x2="114.765" y2="144.738" gradientUnits="userSpaceOnUse">
<stop stop-color="white"/>
<stop offset="1" stop-color="#D17918"/>
</linearGradient>
<linearGradient id="paint10_linear_2901_10883" x1="114.742" y1="127.298" x2="114.742" y2="138.914" gradientUnits="userSpaceOnUse">
<stop stop-color="white"/>
<stop offset="1" stop-color="#D17918"/>
</linearGradient>
<linearGradient id="paint11_linear_2901_10883" x1="114.742" y1="121.467" x2="114.742" y2="133.083" gradientUnits="userSpaceOnUse">
<stop stop-color="white"/>
<stop offset="1" stop-color="#D17918"/>
</linearGradient>
<linearGradient id="paint12_linear_2901_10883" x1="114.765" y1="115.652" x2="114.765" y2="127.267" gradientUnits="userSpaceOnUse">
<stop stop-color="white"/>
<stop offset="1" stop-color="#D17918"/>
</linearGradient>
<linearGradient id="paint13_linear_2901_10883" x1="70.9207" y1="135.097" x2="81.7194" y2="139.376" gradientUnits="userSpaceOnUse">
<stop stop-color="white"/>
<stop offset="1" stop-color="#D17918"/>
</linearGradient>
<linearGradient id="paint14_linear_2901_10883" x1="145.002" y1="144.153" x2="134.203" y2="148.432" gradientUnits="userSpaceOnUse">
<stop stop-color="white"/>
<stop offset="1" stop-color="#D17918"/>
</linearGradient>
</defs>
</svg>
