<svg width="19" height="19" viewBox="0 0 19 19" fill="none" xmlns="http://www.w3.org/2000/svg">
<path d="M16.8907 2.98816H14.5739C14.4255 2.98819 14.2804 3.03229 14.1569 3.11488C14.0335 3.19746 13.9373 3.31483 13.8805 3.45215C13.8237 3.58946 13.8088 3.74055 13.8378 3.88633C13.8667 4.0321 13.9382 4.166 14.0432 4.27111L14.8585 5.08734L12.1663 7.78177C12.0232 7.91863 11.833 7.99501 11.6351 7.99501C11.4373 7.99501 11.247 7.91863 11.104 7.78177L10.9763 7.65325C10.5474 7.24293 9.97691 7.01397 9.38362 7.01397C8.79032 7.01397 8.21987 7.24293 7.7909 7.65325L3.96207 11.4863C3.821 11.628 3.74191 11.8199 3.74219 12.0199C3.74247 12.2199 3.8221 12.4116 3.96357 12.5528C4.10504 12.6941 4.29676 12.7732 4.49654 12.773C4.69633 12.7727 4.88782 12.693 5.02889 12.5513L8.85772 8.71824C9.00067 8.58121 9.19095 8.50472 9.38887 8.50472C9.58679 8.50472 9.77707 8.58121 9.92003 8.71824L10.0477 8.84676C10.4768 9.25673 11.0472 9.48547 11.6404 9.48547C12.2336 9.48547 12.8039 9.25673 13.2331 8.84676L15.9253 6.15158L16.7406 6.9678C16.8459 7.07118 16.9794 7.1412 17.1242 7.16911C17.2691 7.19702 17.419 7.18159 17.5551 7.12475C17.6913 7.0679 17.8077 6.97216 17.8898 6.84948C17.9719 6.72679 18.0161 6.58261 18.0169 6.43493V4.11554C18.0169 3.81654 17.8982 3.52978 17.687 3.31836C17.4759 3.10694 17.1894 2.98816 16.8907 2.98816Z" fill="#6147FF"/>
<path d="M17.2673 16.5168H3.75375C3.15642 16.5168 2.58355 16.2793 2.16117 15.8564C1.73879 15.4336 1.5015 14.8601 1.5015 14.2621V0.751585C1.5015 0.552252 1.4224 0.361084 1.28161 0.220134C1.14082 0.0791846 0.949862 0 0.750751 0C0.551639 0 0.360683 0.0791846 0.21989 0.220134C0.0790967 0.361084 0 0.552252 0 0.751585L0 14.2621C0.00119209 15.2584 0.397058 16.2135 1.10077 16.918C1.80447 17.6225 2.75856 18.0188 3.75375 18.02H17.2673C17.4664 18.02 17.6573 17.9408 17.7981 17.7999C17.9389 17.6589 18.018 17.4677 18.018 17.2684C18.018 17.0691 17.9389 16.8779 17.7981 16.737C17.6573 16.596 17.4664 16.5168 17.2673 16.5168Z" fill="#6147FF"/>
</svg>
