<svg width="42" height="42" viewBox="0 0 42 42" fill="none" xmlns="http://www.w3.org/2000/svg">
<path d="M21.0067 0C18.2447 0.00290568 15.5105 0.549856 12.96 1.60961C10.4094 2.66937 8.09268 4.22118 6.14198 6.17641C4.19127 8.13163 2.64484 10.452 1.59099 13.0049C0.537142 15.5579 -0.0034742 18.2934 1.67997e-05 21.0554C-0.00606398 26.2607 1.91831 31.2835 5.40099 35.1522C8.88368 39.021 13.6772 41.4608 18.8546 42V26.7011C17.7095 26.2645 16.7239 25.4906 16.0281 24.4817C15.3323 23.4728 14.9591 22.2765 14.958 21.0509C14.958 17.7166 17.6723 15.0022 21.0067 15.0022C24.341 15.0022 27.0554 17.7166 27.0554 21.0509C27.0554 23.628 25.4303 25.8332 23.1543 26.7011V41.9911C28.3317 41.452 33.1252 39.0121 36.6079 35.1434C40.0906 31.2746 42.015 26.2519 42.0089 21.0465C42.0124 15.4716 39.8021 10.1235 35.8638 6.1777C31.9255 2.23193 26.5815 0.0114704 21.0067 0.00442805" fill="#00B5EF"/>
</svg>
